<svg width="555" height="366" viewBox="0 0 555 366" fill="none" xmlns="http://www.w3.org/2000/svg">
<path fill-rule="evenodd" clip-rule="evenodd" d="M27.4948 296.652C27.4948 296.652 -6.39347 304.988 1.93507 337.573C6.28718 354.601 38.1625 358.538 82.846 358.538C83.895 358.538 84.9299 358.531 85.9719 358.524C86.9288 358.843 87.8927 359.156 88.8709 359.448C141.387 375.033 213.083 359.476 277.925 339.911C328.69 324.596 443.631 327.346 479.504 327.346C603.575 327.346 536.862 296.652 536.862 296.652H27.4948Z" fill="url(#paint0_linear_1_3)"/>
<path opacity="0.5" d="M520.431 318.669H212.651V295.991H497.813L520.431 318.669Z" fill="#000640"/>
<path opacity="0.5" fill-rule="evenodd" clip-rule="evenodd" d="M268.47 343.905C268.47 350.735 218.392 356.278 156.619 356.278C94.8462 356.278 44.7686 350.742 44.7686 343.905C44.7686 337.075 94.8462 331.532 156.619 331.532C218.399 331.539 268.47 337.075 268.47 343.905Z" fill="#000640"/>
<path d="M20.3713 298.386H546.459C546.459 298.386 564.675 174.067 483.828 97.3134C402.981 20.56 285.694 80.0154 285.694 80.0154C285.694 80.0154 220.363 -32.9898 123.992 9.75052C-32.01 78.9352 20.3713 298.386 20.3713 298.386Z" fill="url(#paint1_linear_1_3)"/>
<path opacity="0.8" d="M110.227 37.0193C110.164 37.0193 110.1 37.0122 110.036 37.0122C100.184 37.0122 92.1953 45.0216 92.1953 54.9C92.1953 64.7784 100.184 72.7878 110.036 72.7878C119.889 72.7878 127.877 64.7784 127.877 54.9H110.227V37.0193Z" fill="url(#paint2_linear_1_3)"/>
<path d="M69.7542 134.674H63.9065V187.605H69.7542V134.674Z" fill="url(#paint3_linear_1_3)"/>
<path d="M81.0385 152.654H75.1908V187.612H81.0385V152.654Z" fill="url(#paint4_linear_1_3)"/>
<path d="M92.3299 141.255H86.4822V187.875H92.3299V141.255Z" fill="url(#paint5_linear_1_3)"/>
<path d="M103.621 136.721H97.7736V187.612H103.621V136.721Z" fill="url(#paint6_linear_1_3)"/>
<path d="M114.906 153.734H109.058V187.612H114.906V153.734Z" fill="url(#paint7_linear_1_3)"/>
<path d="M126.197 160.379H120.349V187.612H126.197V160.379Z" fill="url(#paint8_linear_1_3)"/>
<path d="M137.488 140.11H131.641V187.612H137.488V140.11Z" fill="url(#paint9_linear_1_3)"/>
<path d="M148.773 148.674H142.925V187.612H148.773V148.674Z" fill="url(#paint10_linear_1_3)"/>
<path d="M160.064 141.83H154.216V187.612H160.064V141.83Z" fill="url(#paint11_linear_1_3)"/>
<path d="M171.355 156.421H165.508V187.612H171.355V156.421Z" fill="url(#paint12_linear_1_3)"/>
<path d="M182.647 150.486H176.799V187.612H182.647V150.486Z" fill="url(#paint13_linear_1_3)"/>
<path d="M179.025 146.677C179.025 146.684 178.904 146.67 178.67 146.635C178.415 146.592 178.075 146.542 177.65 146.471C177.203 146.386 176.643 146.315 175.984 146.251C175.651 146.215 175.296 146.18 174.914 146.137C174.531 146.123 174.127 146.102 173.694 146.08C171.972 146.002 169.853 146.052 167.429 146.421C165.012 146.777 162.283 147.445 159.426 148.603C156.577 149.762 153.585 151.396 150.8 153.713C147.972 155.987 145.505 159.007 143.074 162.298C140.621 165.56 138.119 169.142 134.639 172.027C132.916 173.47 130.96 174.721 128.784 175.573C126.608 176.412 124.184 176.774 121.802 176.433C119.407 176.142 117.188 175.154 115.217 173.932C113.261 172.667 111.525 171.153 109.993 169.511C106.903 166.235 104.663 162.511 102.296 159.185C99.9567 155.845 97.49 152.796 94.6052 150.6C93.1805 149.484 91.6282 148.681 90.09 148.027C88.5377 147.402 86.9642 147.018 85.4544 146.777C82.4136 146.322 79.5925 146.585 77.218 147.132C74.8364 147.686 72.8943 148.56 71.3916 149.392C69.9172 150.287 68.8469 151.105 68.1736 151.709C67.8546 152 67.5994 152.235 67.4081 152.405C67.2308 152.562 67.1387 152.64 67.1312 152.633C67.1245 152.626 67.2096 152.54 67.3726 152.37C67.5569 152.185 67.7979 151.943 68.1098 151.638C68.769 151.005 69.8251 150.159 71.2994 149.229C72.8021 148.361 74.7513 147.452 77.1613 146.862C79.5571 146.286 82.4136 145.988 85.5111 146.428C87.0492 146.663 88.6512 147.04 90.2389 147.672C91.8054 148.326 93.4073 149.15 94.8604 150.273C97.809 152.491 100.311 155.568 102.671 158.915C105.053 162.255 107.3 165.951 110.348 169.17C111.858 170.791 113.573 172.269 115.48 173.505C117.408 174.699 119.555 175.659 121.866 175.936C124.163 176.263 126.495 175.915 128.607 175.104C130.719 174.28 132.633 173.058 134.327 171.643C137.743 168.815 140.239 165.269 142.705 162.007C143.939 160.372 145.158 158.78 146.448 157.316C147.1 156.591 147.738 155.873 148.439 155.234C148.787 154.907 149.127 154.587 149.467 154.267C149.815 153.962 150.176 153.677 150.53 153.379C153.366 151.048 156.399 149.406 159.284 148.262C162.176 147.111 164.934 146.464 167.379 146.13C169.824 145.789 171.958 145.76 173.687 145.867C174.12 145.895 174.531 145.917 174.914 145.945C175.296 145.995 175.651 146.038 175.984 146.08C176.65 146.158 177.203 146.244 177.65 146.343C178.075 146.436 178.415 146.499 178.663 146.556C178.911 146.642 179.025 146.67 179.025 146.677ZM57.4634 191.301C57.3287 191.301 57.2153 176.206 57.2153 157.593C57.2153 138.973 57.3217 123.879 57.4634 123.879C57.5981 123.879 57.7115 138.966 57.7115 157.593C57.7115 176.206 57.6052 191.301 57.4634 191.301ZM185.028 191.301C185.028 191.436 157.293 191.549 123.085 191.549C88.8638 191.549 61.1351 191.443 61.1351 191.301C61.1351 191.166 88.8638 191.052 123.085 191.052C157.293 191.052 185.028 191.166 185.028 191.301ZM72.2422 195.465C72.2422 195.6 70.3 195.714 67.9042 195.714C65.5084 195.714 63.5663 195.6 63.5663 195.465C63.5663 195.33 65.5084 195.217 67.9042 195.217C70.3 195.217 72.2422 195.33 72.2422 195.465ZM86.6381 195.679C86.6381 195.814 84.3132 195.927 81.4496 195.927C78.586 195.927 76.2611 195.814 76.2611 195.679C76.2611 195.543 78.586 195.43 81.4496 195.43C84.3132 195.43 86.6381 195.543 86.6381 195.679ZM98.9148 195.679C98.9148 195.814 96.5899 195.927 93.7262 195.927C90.8626 195.927 88.5377 195.814 88.5377 195.679C88.5377 195.543 90.8626 195.43 93.7262 195.43C96.5969 195.43 98.9148 195.543 98.9148 195.679ZM111.191 195.679C111.191 195.814 108.866 195.927 106.003 195.927C103.139 195.927 100.814 195.814 100.814 195.679C100.814 195.543 103.132 195.43 106.003 195.43C108.874 195.43 111.191 195.543 111.191 195.679ZM123.475 195.679C123.475 195.814 121.15 195.927 118.287 195.927C115.423 195.927 113.098 195.814 113.098 195.679C113.098 195.543 115.423 195.43 118.287 195.43C121.15 195.43 123.475 195.543 123.475 195.679ZM135.752 195.679C135.752 195.814 133.427 195.927 130.563 195.927C127.7 195.927 125.375 195.814 125.375 195.679C125.375 195.543 127.7 195.43 130.563 195.43C133.427 195.43 135.752 195.543 135.752 195.679ZM148.028 195.679C148.028 195.814 145.703 195.927 142.84 195.927C139.976 195.927 137.651 195.814 137.651 195.679C137.651 195.543 139.976 195.43 142.84 195.43C145.703 195.43 148.028 195.543 148.028 195.679ZM160.305 195.679C160.305 195.814 157.98 195.927 155.116 195.927C152.253 195.927 149.928 195.814 149.928 195.679C149.928 195.543 152.253 195.43 155.116 195.43C157.98 195.43 160.305 195.543 160.305 195.679ZM172.582 195.679C172.582 195.814 170.257 195.927 167.393 195.927C164.53 195.927 162.205 195.814 162.205 195.679C162.205 195.543 164.53 195.43 167.393 195.43C170.264 195.43 172.582 195.543 172.582 195.679ZM184.858 195.679C184.858 195.814 182.533 195.927 179.67 195.927C176.806 195.927 174.481 195.814 174.481 195.679C174.481 195.543 176.806 195.43 179.67 195.43C182.54 195.43 184.858 195.543 184.858 195.679Z" fill="white"/>
<path d="M103.869 159.818C103.855 159.754 104.373 159.832 104.571 160.5C104.656 160.813 104.656 161.253 104.337 161.637C104.025 162.028 103.402 162.113 102.934 161.886C102.459 161.68 102.104 161.161 102.189 160.663C102.26 160.18 102.593 159.882 102.884 159.739C103.515 159.441 103.919 159.775 103.862 159.811C103.841 159.882 103.48 159.747 103.061 160.038C102.863 160.18 102.664 160.429 102.643 160.713C102.615 160.99 102.813 161.289 103.139 161.438C103.465 161.58 103.82 161.537 104.011 161.331C104.21 161.132 104.266 160.813 104.238 160.571C104.174 160.066 103.827 159.889 103.869 159.818ZM160.383 147.04C160.383 147.011 160.496 146.969 160.716 147.004C160.929 147.04 161.234 147.182 161.482 147.494C161.73 147.793 161.914 148.333 161.687 148.873C161.467 149.392 160.915 149.797 160.255 149.797C159.568 149.797 159.065 149.243 158.923 148.738C158.753 148.212 158.916 147.665 159.199 147.381C159.78 146.798 160.326 146.89 160.312 146.933C160.34 147.011 159.851 147.082 159.469 147.601C159.284 147.85 159.213 148.219 159.348 148.596C159.483 148.966 159.83 149.307 160.262 149.307C160.695 149.314 161.113 149.022 161.276 148.688C161.446 148.347 161.361 147.964 161.198 147.701C160.865 147.146 160.369 147.118 160.383 147.04Z" fill="white"/>
<path d="M161.304 122.329C161.17 122.329 161.056 122.009 161.056 121.619C161.056 121.228 161.17 120.908 161.304 120.908C161.439 120.908 161.553 121.228 161.553 121.619C161.545 122.009 161.439 122.329 161.304 122.329ZM161.304 128.484C161.17 128.484 161.056 127.794 161.056 126.942C161.056 126.089 161.17 125.399 161.304 125.399C161.439 125.399 161.553 126.089 161.553 126.942C161.545 127.794 161.439 128.484 161.304 128.484ZM161.304 134.645C161.17 134.645 161.056 133.956 161.056 133.103C161.056 132.25 161.17 131.561 161.304 131.561C161.439 131.561 161.553 132.25 161.553 133.103C161.545 133.956 161.439 134.645 161.304 134.645ZM161.304 140.807C161.17 140.807 161.056 140.118 161.056 139.265C161.056 138.412 161.17 137.723 161.304 137.723C161.439 137.723 161.553 138.412 161.553 139.265C161.545 140.118 161.439 140.807 161.304 140.807ZM161.304 145.306C161.17 145.306 161.056 144.986 161.056 144.595C161.056 144.204 161.17 143.884 161.304 143.884C161.439 143.884 161.553 144.204 161.553 144.595C161.545 144.986 161.439 145.306 161.304 145.306Z" fill="white"/>
<path d="M202.132 290.704C202.132 290.704 194.902 300.532 170.356 299.942C152.466 299.516 134.731 285.935 134.731 285.935C134.731 285.935 165.09 265.766 202.132 290.704Z" fill="#00759F"/>
<path d="M201.749 291.734C201.749 291.734 186.942 293.333 167.188 270.698C152.792 254.196 150.318 226.977 150.318 226.977C150.318 226.977 193.527 237.694 201.749 291.734Z" fill="#005CB4"/>
<path d="M201.083 291.329C201.083 291.329 187.587 285.018 182.37 255.397C178.564 233.806 190.508 209.231 190.508 209.231C190.508 209.231 221.929 240.821 201.083 291.329Z" fill="#741AAC"/>
<path d="M468.015 296.659C468.015 296.659 475.202 306.431 499.592 305.841C517.369 305.415 534.99 291.919 534.99 291.919C534.99 291.919 504.823 271.878 468.015 296.659Z" fill="#00759F"/>
<path d="M468.39 297.682C468.39 297.682 483.098 299.274 502.732 276.774C517.043 260.379 519.496 233.323 519.496 233.323C519.496 233.323 476.563 243.983 468.39 297.682Z" fill="#005CB4"/>
<path d="M469.057 297.284C469.057 297.284 482.467 291.009 487.649 261.58C491.427 240.124 479.561 215.705 479.561 215.705C479.561 215.705 448.338 247.096 469.057 297.284Z" fill="#741AAC"/>
<path opacity="0.3" d="M69.2864 166.512L198.957 110.17L362.267 301.975L65.1541 177.371" fill="#83FFFF"/>
<path d="M471.977 110.17H198.957V300.802H471.977V110.17Z" fill="url(#paint14_linear_1_3)"/>
<path d="M461.217 121.27H218.25V225.122H461.217V121.27Z" fill="url(#paint15_linear_1_3)"/>
<path d="M344.32 230.864H218.25V291.336H344.32V230.864Z" fill="url(#paint16_linear_1_3)"/>
<path d="M299.296 176.81H286.58V222.585H299.296V176.81Z" fill="#A600A9"/>
<path d="M313.671 168.14H300.955V222.585H313.671V168.14Z" fill="url(#paint17_linear_1_3)"/>
<path d="M328.102 138.462H315.386V222.592H328.102V138.462Z" fill="#A600A9"/>
<path d="M209.078 133.963C210.652 133.963 211.928 132.684 211.928 131.106C211.928 129.528 210.652 128.249 209.078 128.249C207.505 128.249 206.229 129.528 206.229 131.106C206.229 132.684 207.505 133.963 209.078 133.963Z" fill="url(#paint18_linear_1_3)"/>
<path d="M209.078 153.315C210.652 153.315 211.928 152.036 211.928 150.458C211.928 148.88 210.652 147.601 209.078 147.601C207.505 147.601 206.229 148.88 206.229 150.458C206.229 152.036 207.505 153.315 209.078 153.315Z" fill="url(#paint19_linear_1_3)"/>
<path d="M209.078 174.564C210.652 174.564 211.928 173.285 211.928 171.707C211.928 170.129 210.652 168.85 209.078 168.85C207.505 168.85 206.229 170.129 206.229 171.707C206.229 173.285 207.505 174.564 209.078 174.564Z" fill="url(#paint20_linear_1_3)"/>
<path d="M439.457 252.775C429.951 255.553 429.987 251.133 418.646 249.2C407.312 247.267 403.796 251.133 398.331 255.134C392.873 259.128 384.431 254.942 379.229 253.165C374.019 251.389 366.222 254.182 360.148 259.213C358.156 260.869 355.37 261.8 352.535 262.319V284.741H460.388V237.872C453.413 241.596 447.034 250.557 439.457 252.775Z" fill="url(#paint21_linear_1_3)"/>
<path d="M439.457 259.363C429.951 262.141 429.987 257.721 418.646 255.788C407.312 253.855 403.796 257.721 398.331 261.722C392.866 265.723 384.431 261.53 379.229 259.753C374.019 257.977 366.222 260.77 360.148 265.801C358.156 267.457 355.37 268.388 352.535 268.907V291.329H460.388V244.46C453.413 248.191 447.034 257.145 439.457 259.363Z" fill="#00759F"/>
<path d="M243.045 173.932H230.329V222.585H243.045V173.932Z" fill="#A600A9"/>
<path d="M257.037 159.612H244.32V222.585H257.037V159.612Z" fill="url(#paint22_linear_1_3)"/>
<path d="M270.929 192.182H258.213V222.592H270.929V192.182Z" fill="url(#paint23_linear_1_3)"/>
<path d="M285.013 201.009H272.297V222.585H285.013V201.009Z" fill="url(#paint24_linear_1_3)"/>
<path d="M315.804 253.514H311.643V284.997H315.804V253.514Z" fill="url(#paint25_linear_1_3)"/>
<path d="M309.397 266.761H305.236V284.99H309.397V266.761Z" fill="#005CB4"/>
<path d="M302.989 263.918H298.828V284.997H302.989V263.918Z" fill="#A600A9"/>
<path d="M296.581 276.497H292.421V284.997H296.581V276.497Z" fill="#005CB4"/>
<path d="M328.627 246.634H324.466V284.99H328.627V246.634Z" fill="#00759F"/>
<path d="M322.212 250.145H318.051V284.997H322.212V250.145Z" fill="url(#paint26_linear_1_3)"/>
<path d="M341.442 242.839H337.281V284.99H341.442V242.839Z" fill="#A600A9"/>
<path d="M335.034 234.517H330.874V284.997H335.034V234.517Z" fill="#005CB4"/>
<path d="M296.468 288.948C296.468 289.048 295.646 289.126 294.625 289.126C293.611 289.126 292.782 289.048 292.782 288.948C292.782 288.849 293.604 288.763 294.625 288.763C295.646 288.763 296.468 288.849 296.468 288.948ZM302.79 288.948C302.79 289.048 301.968 289.126 300.947 289.126C299.934 289.126 299.112 289.048 299.112 288.948C299.112 288.849 299.934 288.763 300.947 288.763C301.968 288.763 302.79 288.849 302.79 288.948ZM309.106 288.948C309.106 289.048 308.284 289.126 307.27 289.126C306.257 289.126 305.434 289.048 305.434 288.948C305.434 288.849 306.257 288.763 307.27 288.763C308.284 288.763 309.106 288.849 309.106 288.948ZM315.421 288.948C315.421 289.048 314.599 289.126 313.586 289.126C312.572 289.126 311.743 289.048 311.743 288.948C311.743 288.849 312.565 288.763 313.586 288.763C314.599 288.763 315.421 288.849 315.421 288.948ZM321.744 288.948C321.744 289.048 320.922 289.126 319.908 289.126C318.895 289.126 318.065 289.048 318.065 288.948C318.065 288.849 318.888 288.763 319.908 288.763C320.922 288.763 321.744 288.849 321.744 288.948ZM328.06 288.948C328.06 289.048 327.237 289.126 326.217 289.126C325.203 289.126 324.374 289.048 324.374 288.948C324.374 288.849 325.196 288.763 326.217 288.763C327.237 288.763 328.06 288.849 328.06 288.948ZM334.382 288.948C334.382 289.048 333.56 289.126 332.539 289.126C331.526 289.126 330.703 289.048 330.703 288.948C330.703 288.849 331.526 288.763 332.539 288.763C333.553 288.763 334.382 288.849 334.382 288.948ZM340.698 288.948C340.698 289.048 339.875 289.126 338.855 289.126C337.841 289.126 337.019 289.048 337.019 288.948C337.019 288.849 337.841 288.763 338.855 288.763C339.875 288.763 340.698 288.849 340.698 288.948Z" fill="#1A2E35"/>
<path opacity="0.5" d="M72.8447 317.837C94.2265 317.837 111.56 315.282 111.56 312.13C111.56 308.979 94.2265 306.424 72.8447 306.424C51.4628 306.424 34.1293 308.979 34.1293 312.13C34.1293 315.282 51.4628 317.837 72.8447 317.837Z" fill="#000640"/>
<path d="M77.0833 182.24L71.9232 204.967C71.7814 205.585 72.1996 206.197 72.8305 206.282L88.8921 208.592C89.4521 208.67 89.9766 208.307 90.1042 207.76L95.2644 185.04C95.4061 184.421 94.9879 183.81 94.3642 183.718L78.3025 181.408C77.7354 181.323 77.2109 181.685 77.0833 182.24Z" fill="black"/>
<path d="M78.0898 182.972L73.1494 204.725L89.0977 207.021L94.0381 185.267L78.0898 182.972Z" fill="url(#paint27_linear_1_3)"/>
<path d="M92.3441 186.866L78.7987 184.919" stroke="#A1D2F0" stroke-width="1.481" stroke-linecap="round" stroke-linejoin="round"/>
<path d="M91.8904 188.927L78.338 186.973" stroke="#A1D2F0" stroke-width="1.481" stroke-linecap="round" stroke-linejoin="round"/>
<path d="M86.2483 190.633L77.778 189.41" stroke="#A1D2F0" stroke-width="1.481" stroke-linecap="round" stroke-linejoin="round"/>
<path d="M85.6458 192.395L77.1755 191.18" stroke="#A1D2F0" stroke-width="1.481" stroke-linecap="round" stroke-linejoin="round"/>
<path d="M85.0433 194.165L76.573 192.95" stroke="#A1D2F0" stroke-width="1.481" stroke-linecap="round" stroke-linejoin="round"/>
<path d="M88.1479 203.93L79.6847 202.714" stroke="#A1D2F0" stroke-width="1.481" stroke-linecap="round" stroke-linejoin="round"/>
<path d="M70.9025 205.23C71.8098 204.804 72.4902 204.008 73.1352 203.233C73.7732 202.473 74.4111 201.712 75.049 200.952C75.3042 200.653 75.5665 200.319 75.5948 199.928C74.5245 199.843 73.837 201.236 72.7667 201.314C73.2628 199.552 73.9787 197.846 74.8931 196.254C75.1128 195.863 75.3538 195.416 75.1979 194.996C74.0425 195.437 73.0644 196.261 72.228 197.171C71.6397 197.811 71.0939 198.5 70.619 199.225C69.2084 201.364 68.3295 203.823 67.7341 206.325" fill="url(#paint28_linear_1_3)"/>
<path d="M66.3306 237.296L61.3406 248.766C63.4457 252.327 64.6578 256.534 64.8208 260.791C64.9059 263.008 64.7074 265.219 64.7712 267.436C64.7783 267.592 64.7996 267.763 64.835 267.919C65.5013 264.636 66.0046 261.928 66.1959 260.173C66.7417 255.241 66.7417 247.402 66.5716 237.282C66.5007 237.282 66.4157 237.282 66.3306 237.296Z" fill="#F2A181"/>
<path d="M66.3023 223.537L54.8337 213.836C54.8337 213.836 49.4964 221.092 51.5094 228.093C52.5017 231.532 53.7422 233.245 54.2809 234.88C54.7841 236.408 58.236 258.005 57.9809 259.59C57.7257 261.168 55.8686 265.588 55.1598 270.236C54.3801 275.346 54.4368 291.002 53.9477 297.334H53.9406C53.9406 297.334 53.5508 302.06 52.9908 303.091C52.4379 304.121 51.6512 305.272 51.5165 306.672C51.4385 307.483 51.8851 308.343 52.8136 308.819C53.7422 309.295 54.3659 308.797 54.6991 308.84C56.6412 309.075 56.9885 310.553 60.3199 311.107C61.3477 311.278 62.9213 310.929 63.8215 310.219C64.1759 309.942 64.1617 309.494 63.9632 309.181C63.7648 308.876 61.3052 308.03 60.1994 307.312C59.1433 306.63 58.1084 304.754 57.8178 304.114C57.747 303.951 57.7611 303.482 57.8249 302.892C57.9738 301.882 58.1439 300.831 58.3282 299.743C58.477 298.969 58.5975 298.407 58.5975 298.407L58.5621 298.4C60.9933 284.641 65.5155 266.462 66.2102 260.194C66.9757 253.194 66.6638 240.409 66.3023 223.537Z" fill="url(#paint29_linear_1_3)"/>
<path d="M64.0766 310.446C64.3176 310.027 64.3814 309.401 64.1546 309.245C63.8427 309.032 62.7228 308.293 62.0777 307.994C61.4327 307.696 60.4049 307.433 60.7664 307.632C61.1279 307.831 60.4616 308.563 59.8592 308.52C57.7682 308.392 56.23 306.999 55.0392 306.701C53.3239 306.267 52.6009 304.235 52.523 303.908C52.1969 304.114 51.4456 305.756 51.2896 306.267C51.1549 306.736 50.8998 307.582 51.0344 308.065C51.1266 308.399 51.3251 309.075 51.2258 309.785C51.2258 309.785 51.5661 310.048 52.4592 310.233C53.0262 310.354 53.7917 310.254 53.7917 310.254L53.9406 309.174C53.9406 309.174 54.4084 309.16 55.0038 309.281C55.5992 309.401 56.5703 309.97 56.627 310.041C56.868 310.325 57.0593 310.851 57.3712 311.008C58.2076 311.427 59.0511 311.633 60.1143 311.697C62.3542 311.811 63.6584 311.157 64.0766 310.446Z" fill="black"/>
<path d="M81.96 310.233C81.7119 309.963 79.0538 309.529 77.8134 309.004C76.6297 308.506 75.1908 306.907 74.9073 306.225C74.6238 305.55 74.6946 302.11 74.7301 300.667C74.9782 290.725 76.814 266.427 77.0763 260.613C77.537 250.5 76.2257 240.06 72.3485 223.829L57.8958 212.706C57.8958 212.706 53.8485 220.247 55.2023 227.46C55.9891 231.646 59.4481 232.286 60.0364 233.913C60.6247 235.541 69.3644 261.758 69.3644 261.758C69.3644 261.758 67.6632 267.429 67.564 273.64C67.4789 278.942 69.8747 294.932 70.3213 301.023C70.3709 302.209 70.5764 305.066 70.2291 305.969C69.8038 307.078 68.7052 308.385 68.7619 309.785C68.7902 310.603 69.3786 311.37 70.4063 311.69C71.427 312.01 72.0012 311.413 72.3556 311.398C74.3899 311.313 74.9569 312.72 78.4726 312.713C79.5571 312.713 81.1307 312.116 81.9671 311.256C82.2789 310.951 82.2081 310.51 81.96 310.233Z" fill="url(#paint30_linear_1_3)"/>
<path d="M82.2648 311.484C82.4561 311.029 82.4278 310.396 82.1797 310.283C81.8253 310.126 80.5707 309.572 79.8619 309.387C79.1531 309.195 78.0615 309.103 78.4584 309.238C78.8554 309.373 78.2742 310.205 77.6433 310.269C75.4673 310.482 73.681 309.359 72.4123 309.259C70.5765 309.117 69.9031 307.227 69.7826 306.907C69.4778 307.163 68.5705 308.904 68.4855 309.444C68.4075 309.927 68.2728 310.809 68.4784 311.263C68.6201 311.576 68.9249 312.216 68.9178 312.926C68.9178 312.926 69.3077 313.125 70.2575 313.168C70.86 313.189 71.6326 312.969 71.6326 312.969V311.875C71.6326 311.875 72.1146 311.782 72.7454 311.804C73.3763 311.825 74.156 312.152 74.5387 312.436C74.8364 312.663 75.1483 313.04 75.5027 313.133C76.5234 313.388 77.2535 313.459 78.3592 313.346C80.677 313.111 81.9316 312.251 82.2648 311.484Z" fill="black"/>
<path d="M55.1385 212.614C54.1603 213.694 50.6659 219.536 50.6234 224.283C50.5879 229.038 52.2749 232.087 52.4237 233.074C53.5295 240.338 54.6069 249.093 54.6069 249.569C54.6069 250.046 58.718 252.796 64.2467 252.448C74.4607 251.801 78.4301 249.122 78.4301 249.122C78.4301 249.122 77.9481 231.532 76.3745 222.862C75.5877 218.52 72.15 211.52 72.15 211.52" fill="url(#paint31_linear_1_3)"/>
<path d="M45.8176 193.625C45.8176 193.625 47.4621 201.819 47.8944 203.276C48.3268 204.733 50.4603 213.993 52.4805 213.829C54.5006 213.666 65.5793 204.399 65.5793 204.399L64.0128 201.25L54.2596 205.912C54.2596 205.912 53.3807 195.33 52.608 192.807" fill="white"/>
<path d="M49.5885 198.67C50.6234 202.33 52.7356 206.182 53.3665 209.025C53.4941 209.594 60.249 207.135 60.2632 204.59" fill="url(#paint32_linear_1_3)"/>
<path d="M48.7237 188.856C48.7237 188.856 48.3693 195.7 49.6026 199.154C50.8218 199.132 51.8921 198.848 51.8921 198.848L48.7237 188.856Z" fill="#B03D44"/>
<path d="M67.8759 160.784C69.8251 163.314 69.4423 166.882 68.9603 170.044C68.7193 171.643 68.4713 173.242 68.2303 174.841C68.1169 175.602 67.9609 176.433 67.3726 176.924C66.7772 177.414 65.9266 177.407 65.154 177.379C65.1611 178.7 65.1682 180.022 65.1753 181.351C62.9142 181.401 60.6601 181.415 58.399 181.38C58.399 180.449 58.1935 179.525 57.8178 178.686C56.7121 178.665 55.9749 177.556 55.5425 176.533C55.0464 175.36 54.6778 174.131 54.3305 172.901C53.8626 171.274 53.4161 169.618 53.3736 167.919C53.331 166.221 53.7351 164.458 54.8054 163.151C55.5354 162.255 56.5349 161.623 57.5556 161.09C58.959 160.358 60.6389 159.782 62.0849 160.422" fill="white"/>
<path d="M65.9124 166.59C66.0896 166.868 66.0471 167.244 66.2172 167.529C66.5007 168.012 66.8693 168.182 67.3726 168.417C68.1806 168.794 67.9963 169.98 67.968 170.506C68.5776 170.101 68.6768 168.985 68.8257 168.424C68.9887 167.791 69.095 167.138 69.2864 166.512C69.4636 165.901 69.7755 165.325 69.8322 164.679C70.0306 162.454 68.6414 159.839 66.9544 158.595C65.7281 157.686 63.864 157.721 62.4818 158.645C61.9006 159.036 61.4611 159.619 61.2059 160.272C61.0925 160.55 61.0216 160.877 61.1563 161.147" fill="black"/>
<path d="M55.0392 182.296C55.1527 181.522 55.3653 180.619 56.0812 180.314C56.2797 180.228 56.4994 180.2 56.7191 180.179C58.9235 179.937 61.1421 179.83 63.3536 179.866C64.268 179.88 65.2178 179.93 66.04 180.335C67.323 180.982 68.0318 182.368 68.6555 183.668" fill="url(#paint33_linear_1_3)"/>
<path d="M72.9368 197.157C72.9368 197.882 72.5327 198.855 72.4052 199.232C71.9019 199.495 69.903 199.921 68.7548 199.395C68.4996 197 67.1032 192.395 67.1032 192.395C67.1032 192.395 72.9368 196.489 72.9368 197.157Z" fill="#B03D44"/>
<path d="M70.3709 195.487C70.3709 195.487 76.9912 211.52 79.8619 211.52C81.9529 211.52 87.0705 196.716 87.0705 196.716L83.8312 195.181L80.2234 201.378L76.573 189.815" fill="white"/>
<path d="M83.1933 196.283C83.1933 196.283 84.2636 194.591 84.1856 193.39C84.1573 192.935 83.8808 190.754 84.1077 190.327C84.3345 189.901 84.8803 188.494 85.1921 188.224C85.504 187.953 86.6523 187.513 86.9358 187.705C87.2194 187.897 87.5667 187.001 88.0345 187.079C88.5023 187.157 88.8851 187.548 88.8851 187.975C88.8851 188.401 89.5088 188.479 89.5868 188.792C89.6648 189.105 89.6293 189.375 89.7427 189.609C89.8561 189.844 90.2035 189.73 90.3239 190.313C90.4374 190.846 90.2885 190.896 90.3239 191.173C90.3594 191.443 90.5933 191.422 90.5153 191.94C90.4374 192.459 90.083 193.134 89.7711 193.717C89.4592 194.3 88.8213 195.032 87.9636 195.551C87.5454 195.806 87.3115 196.254 86.9075 197.008" fill="white"/>
<path d="M84.9724 183.895C84.8873 183.768 84.6676 183.554 84.3983 183.739C84.136 183.924 84.214 184.244 84.2707 184.379C84.3274 184.507 86.227 188.82 86.227 188.82C86.227 188.82 86.3829 189.005 86.6877 188.735C87.0138 188.444 86.9145 188.302 86.9145 188.302C86.9145 188.302 85.0504 184.023 84.9724 183.895Z" fill="black"/>
<path d="M87.028 188.01C86.6523 188.678 86.2199 188.892 85.8372 189.254C85.5324 189.538 85.5678 189.723 85.2347 190.022C85.823 189.979 85.7238 189.631 86.4822 189.076C86.8366 188.82 87.1981 188.543 87.269 188.11C87.2973 187.968 87.1201 187.882 87.028 188.01Z" fill="black"/>
<path d="M72.9439 198.408C75.0774 198.017 76.7289 196.531 78.423 194.797C77.4802 192.189 76.1406 185.772 73.8086 183.32C71.3986 180.797 67.3371 181.11 65.1611 181.181C62.9071 181.081 61.05 181.351 58.3565 181.472C56.5632 181.55 54.777 181.763 53.0191 182.147C52.8207 182.19 52.6222 182.24 52.4237 182.289V182.268C52.4237 182.268 49.1916 182.616 47.5471 183.874C43.3651 187.079 46.6044 198.727 46.6044 198.727C46.6044 198.727 46.3988 199.346 49.2057 199.189C49.6806 199.161 50.1414 199.118 50.5808 199.061C52.041 202.494 55.7126 209.572 54.6423 211.086C54.3659 211.477 53.6642 212.23 53.5791 212.721C53.2672 214.519 57.3287 215.158 59.0653 215.3C61.7092 215.521 64.75 215.371 67.4009 215.251C69.414 215.158 73.8086 214.455 74.1205 211.96C74.1843 211.47 73.9433 211.079 73.7023 210.724C73.3904 210.269 72.6816 209.722 72.4264 209.217C71.8168 208.009 71.2781 202.927 71.4908 201.634C71.6538 200.596 72.3626 199.921 72.9439 198.408Z" fill="url(#paint34_linear_1_3)"/>
<path d="M66.196 252.291C65.5439 248.07 61.5178 234.993 61.3477 234.631C59.1504 232.925 57.7044 231.163 56.9743 229.741C56.4782 232.605 57.7824 235.441 59.0015 238.085C61.1351 242.697 62.4038 247.707 64.2396 252.448" fill="url(#paint35_linear_1_3)"/>
<path d="M65.5439 172.852C65.2745 171.523 65.2958 170.769 65.7282 169.881C65.8699 169.589 66.0613 169.312 66.3236 169.128C66.678 168.879 67.1387 168.829 67.5286 169C67.7837 169.113 67.9893 169.319 68.1381 169.568C68.5989 167.784 68.6981 165.88 68.5634 164.025C68.3508 161.083 66.5858 158.808 63.9987 157.742C59.2142 155.774 52.3458 157.721 50.4037 162.426C48.9364 165.979 49.6807 171.11 52.4876 174.095C54.9755 176.732 58.5479 177.123 61.851 176.575C63.5379 176.298 66.1464 176.462 67.0182 174.159C67.0891 173.981 66.9332 173.804 66.7559 173.818C66.0684 173.875 65.5935 173.1 65.5439 172.852Z" fill="black"/>
<path d="M56.2159 174.927C54.8408 174.536 53.3523 175.31 52.4308 176.419C51.3676 177.691 50.914 179.674 51.8992 180.996C52.2678 181.493 52.7994 181.842 53.3381 182.147C54.9825 183.064 56.9247 183.604 58.7534 183.156C60.5751 182.709 62.177 181.067 62.1557 179.184C62.1345 177.478 60.894 176.057 59.6394 174.905" fill="black"/>
<path opacity="0.5" d="M475.478 314.206C475.478 318.377 458.58 321.76 437.741 321.76C416.902 321.76 400.004 318.377 400.004 314.206C400.004 310.034 416.895 306.651 437.741 306.651C458.587 306.651 475.478 310.034 475.478 314.206Z" fill="#000640"/>
<path d="M425.323 187.939L430.327 209.977C430.462 210.574 430.058 211.164 429.448 211.257L413.868 213.502C413.33 213.581 412.812 213.225 412.692 212.692L407.688 190.654C407.553 190.05 407.957 189.46 408.567 189.375L424.146 187.136C424.692 187.051 425.202 187.406 425.323 187.939Z" fill="black"/>
<path d="M424.352 188.65L429.143 209.757L413.67 211.982L408.878 190.874L424.352 188.65Z" fill="url(#paint36_linear_1_3)"/>
<path d="M410.516 192.431L423.664 190.54" stroke="#A1D2F0" stroke-width="1.436" stroke-linecap="round" stroke-linejoin="round"/>
<path d="M410.962 194.428L424.104 192.537" stroke="#A1D2F0" stroke-width="1.436" stroke-linecap="round" stroke-linejoin="round"/>
<path d="M416.434 196.084L424.649 194.897" stroke="#A1D2F0" stroke-width="1.436" stroke-linecap="round" stroke-linejoin="round"/>
<path d="M417.016 197.796L425.231 196.61" stroke="#A1D2F0" stroke-width="1.436" stroke-linecap="round" stroke-linejoin="round"/>
<path d="M417.604 199.509L425.819 198.329" stroke="#A1D2F0" stroke-width="1.436" stroke-linecap="round" stroke-linejoin="round"/>
<path d="M414.591 208.982L422.807 207.803" stroke="#A1D2F0" stroke-width="1.436" stroke-linecap="round" stroke-linejoin="round"/>
<path d="M431.319 210.247C430.44 209.828 429.781 209.061 429.157 208.307C428.541 207.568 427.917 206.829 427.3 206.09C427.052 205.799 426.797 205.479 426.769 205.102C427.811 205.017 428.477 206.367 429.512 206.445C429.03 204.733 428.335 203.077 427.449 201.535C427.237 201.158 427.003 200.717 427.152 200.312C428.271 200.739 429.221 201.542 430.036 202.423C430.611 203.041 431.135 203.709 431.596 204.413C432.964 206.488 433.814 208.876 434.396 211.299" fill="black"/>
<path d="M435.749 241.34L440.584 252.469C438.542 255.923 437.366 260.002 437.21 264.131C437.132 266.277 437.316 268.431 437.259 270.577C437.252 270.726 437.231 270.89 437.195 271.046C436.55 267.862 436.061 265.24 435.877 263.527C435.345 258.744 435.345 251.14 435.516 241.325C435.593 241.333 435.671 241.333 435.749 241.34Z" fill="#F2A181"/>
<path d="M435.785 228L446.906 218.591C446.906 218.591 452.08 225.627 450.131 232.421C449.174 235.761 447.969 237.417 447.445 239.002C446.956 240.48 443.61 261.438 443.858 262.966C444.106 264.501 445.907 268.786 446.594 273.292C447.353 278.245 447.296 293.433 447.771 299.58H447.778C447.778 299.58 448.161 304.164 448.699 305.159C449.238 306.161 449.997 307.277 450.131 308.627C450.209 309.409 449.77 310.247 448.87 310.709C447.969 311.171 447.367 310.688 447.041 310.73C445.155 310.958 444.822 312.393 441.59 312.926C440.591 313.09 439.067 312.756 438.188 312.059C437.848 311.789 437.862 311.356 438.053 311.057C438.244 310.759 440.626 309.934 441.703 309.245C442.731 308.584 443.731 306.765 444.014 306.139C444.085 305.976 444.071 305.528 444.007 304.953C443.858 303.972 443.695 302.949 443.518 301.904C443.376 301.15 443.263 300.603 443.263 300.603L443.298 300.596C440.945 287.257 436.557 269.618 435.884 263.534C435.126 256.761 435.43 244.367 435.785 228Z" fill="black"/>
<path d="M437.94 312.294C437.706 311.889 437.642 311.278 437.862 311.128C438.166 310.922 439.251 310.205 439.875 309.913C440.498 309.622 441.498 309.366 441.144 309.558C440.796 309.75 441.441 310.46 442.022 310.418C444.05 310.297 445.545 308.94 446.701 308.655C448.366 308.236 449.068 306.267 449.139 305.948C449.458 306.147 450.188 307.738 450.337 308.236C450.471 308.691 450.712 309.515 450.585 309.984C450.5 310.311 450.301 310.965 450.401 311.647C450.401 311.647 450.075 311.903 449.203 312.081C448.65 312.194 447.913 312.095 447.913 312.095L447.771 311.043C447.771 311.043 447.317 311.029 446.743 311.143C446.169 311.263 445.226 311.811 445.17 311.882C444.936 312.159 444.751 312.663 444.447 312.82C443.639 313.232 442.816 313.424 441.789 313.488C439.612 313.623 438.344 312.99 437.94 312.294Z" fill="black"/>
<path d="M420.595 312.095C420.836 311.832 423.409 311.413 424.621 310.901C425.769 310.418 427.166 308.868 427.435 308.208C427.704 307.547 427.641 304.214 427.612 302.813C427.371 293.17 425.592 269.603 425.337 263.961C424.89 254.153 426.159 244.026 429.923 228.277L443.943 217.489C443.943 217.489 447.87 224.809 446.552 231.802C445.786 235.86 442.434 236.486 441.866 238.063C441.299 239.641 432.822 265.069 432.822 265.069C432.822 265.069 434.474 270.57 434.566 276.589C434.651 281.735 432.319 297.242 431.886 303.147C431.837 304.306 431.638 307.07 431.979 307.945C432.397 309.025 433.453 310.29 433.403 311.647C433.375 312.436 432.808 313.189 431.808 313.495C430.816 313.808 430.263 313.225 429.923 313.211C427.945 313.125 427.4 314.49 423.99 314.49C422.941 314.49 421.41 313.907 420.602 313.076C420.283 312.784 420.354 312.358 420.595 312.095Z" fill="black"/>
<path d="M420.304 313.303C420.12 312.862 420.141 312.251 420.389 312.138C420.73 311.981 421.949 311.448 422.636 311.263C423.324 311.079 424.387 310.993 423.997 311.121C423.607 311.256 424.175 312.059 424.784 312.116C426.896 312.322 428.626 311.235 429.859 311.136C431.638 310.993 432.29 309.16 432.411 308.854C432.709 309.103 433.588 310.794 433.666 311.313C433.744 311.782 433.871 312.635 433.673 313.083C433.538 313.388 433.24 314.007 433.247 314.696C433.247 314.696 432.872 314.895 431.95 314.931C431.369 314.952 430.618 314.739 430.618 314.739V313.68C430.618 313.68 430.15 313.587 429.54 313.616C428.924 313.637 428.172 313.95 427.804 314.234C427.513 314.454 427.208 314.824 426.868 314.909C425.883 315.158 425.174 315.229 424.097 315.122C421.843 314.881 420.623 314.049 420.304 313.303Z" fill="black"/>
<path d="M446.616 217.404C447.565 218.449 450.953 224.113 450.989 228.725C451.024 233.337 449.387 236.294 449.245 237.253C448.168 244.296 452.662 279.752 452.662 280.214C452.662 280.676 446.942 285.317 441.604 285.928C429.88 287.271 418.823 282.232 418.823 282.232C418.823 282.232 420.836 255.027 426.017 227.346C426.804 223.139 430.114 216.345 430.114 216.345" fill="url(#paint37_linear_1_3)"/>
<path d="M455.653 198.983C455.653 198.983 454.058 206.929 453.64 208.343C453.222 209.757 451.152 218.74 449.189 218.584C447.225 218.427 436.48 209.43 436.48 209.43L438.003 206.381L447.466 210.901C447.466 210.901 448.324 200.632 449.068 198.187" fill="black"/>
<path d="M452.832 194.364C452.832 194.364 453.179 201.002 451.974 204.356C450.79 204.335 449.756 204.065 449.756 204.065L452.832 194.364Z" fill="#B03D44"/>
<path d="M434.254 167.131C432.361 169.589 432.737 173.043 433.205 176.114C433.439 177.663 433.673 179.219 433.914 180.768C434.027 181.508 434.176 182.311 434.75 182.787C435.324 183.263 436.153 183.256 436.898 183.227C436.891 184.514 436.884 185.793 436.876 187.079C439.067 187.129 441.257 187.143 443.447 187.108C443.447 186.205 443.646 185.31 444.014 184.492C445.085 184.471 445.8 183.398 446.219 182.403C446.701 181.266 447.055 180.072 447.395 178.878C447.849 177.3 448.281 175.687 448.324 174.045C448.366 172.404 447.976 170.691 446.935 169.419C446.226 168.552 445.255 167.941 444.262 167.422C442.901 166.711 441.271 166.15 439.868 166.768" fill="white"/>
<path d="M436.161 172.766C435.99 173.036 436.026 173.399 435.87 173.676C435.601 174.145 435.239 174.308 434.75 174.536C433.963 174.905 434.148 176.05 434.169 176.568C433.573 176.17 433.481 175.097 433.339 174.543C433.176 173.932 433.077 173.299 432.893 172.688C432.723 172.091 432.418 171.537 432.361 170.911C432.17 168.751 433.517 166.221 435.147 165.006C436.331 164.124 438.145 164.16 439.485 165.055C440.052 165.432 440.477 166.001 440.725 166.633C440.832 166.903 440.91 167.223 440.775 167.479" fill="black"/>
<path d="M446.708 187.996C446.594 187.243 446.396 186.369 445.694 186.07C445.503 185.985 445.29 185.964 445.077 185.942C442.937 185.708 440.789 185.601 438.641 185.637C437.755 185.651 436.834 185.693 436.04 186.091C434.793 186.717 434.105 188.067 433.503 189.325" fill="url(#paint38_linear_1_3)"/>
<path d="M429.349 202.409C429.349 203.112 429.739 204.05 429.866 204.427C430.355 204.676 432.298 205.095 433.41 204.59C433.651 202.267 435.012 197.796 435.012 197.796C435.012 197.796 429.349 201.762 429.349 202.409Z" fill="#B03D44"/>
<path d="M431.837 200.788C431.837 200.788 425.415 216.338 422.636 216.338C420.609 216.338 415.64 201.982 415.64 201.982L418.78 200.49L422.282 206.502L425.826 195.288" fill="black"/>
<path d="M419.397 201.57C419.397 201.57 418.355 199.928 418.433 198.763C418.462 198.315 418.724 196.204 418.504 195.792C418.284 195.38 417.76 194.016 417.455 193.753C417.15 193.49 416.037 193.063 415.768 193.255C415.499 193.447 415.158 192.573 414.705 192.651C414.251 192.729 413.875 193.106 413.875 193.518C413.875 193.93 413.273 194.008 413.195 194.314C413.117 194.62 413.153 194.883 413.046 195.11C412.933 195.337 412.6 195.224 412.479 195.792C412.373 196.311 412.515 196.361 412.479 196.624C412.444 196.887 412.217 196.865 412.288 197.37C412.366 197.875 412.706 198.528 413.011 199.097C413.316 199.665 413.932 200.369 414.762 200.874C415.173 201.122 415.392 201.556 415.782 202.288" fill="black"/>
<path d="M417.675 189.552C417.753 189.432 417.972 189.226 418.228 189.403C418.483 189.581 418.405 189.894 418.348 190.022C418.291 190.149 416.448 194.328 416.448 194.328C416.448 194.328 416.293 194.506 416.002 194.243C415.683 193.966 415.782 193.824 415.782 193.824C415.782 193.824 417.597 189.673 417.675 189.552Z" fill="white"/>
<path d="M415.676 193.539C416.037 194.186 416.456 194.392 416.831 194.748C417.129 195.025 417.086 195.202 417.412 195.494C416.838 195.451 416.938 195.11 416.2 194.577C415.86 194.328 415.506 194.058 415.435 193.639C415.414 193.497 415.591 193.419 415.676 193.539Z" fill="black"/>
<path d="M429.335 203.624C427.265 203.24 425.663 201.805 424.019 200.12C424.933 197.597 426.23 191.365 428.491 188.991C430.823 186.546 434.764 186.845 436.876 186.916C439.06 186.816 440.86 187.079 443.476 187.2C445.212 187.278 446.949 187.477 448.657 187.854C448.855 187.897 449.047 187.939 449.231 187.989L449.238 187.968C449.238 187.968 452.378 188.302 453.966 189.524C458.02 192.637 454.88 203.93 454.88 203.93C454.88 203.93 455.079 204.534 452.357 204.377C451.896 204.349 451.45 204.306 451.024 204.249C449.607 207.582 446.041 214.44 447.083 215.912C447.353 216.295 448.033 217.02 448.111 217.496C448.409 219.245 444.475 219.856 442.788 219.998C440.222 220.211 437.273 220.069 434.7 219.948C432.751 219.856 428.491 219.174 428.186 216.757C428.13 216.281 428.364 215.904 428.598 215.556C428.895 215.116 429.583 214.583 429.831 214.099C430.426 212.927 430.944 208.002 430.738 206.744C430.589 205.749 429.902 205.095 429.335 203.624Z" fill="#A600A9"/>
<path d="M436.522 178.835C436.777 177.542 436.763 176.817 436.338 175.957C436.196 175.673 436.012 175.403 435.764 175.225C435.423 174.984 434.97 174.941 434.594 175.104C434.346 175.211 434.148 175.41 434.006 175.652C433.559 173.918 433.467 172.07 433.595 170.272C433.8 167.415 435.516 165.212 438.025 164.174C442.667 162.262 449.33 164.153 451.216 168.715C452.64 172.162 451.917 177.144 449.196 180.029C446.786 182.588 443.312 182.964 440.116 182.439C438.478 182.169 435.948 182.332 435.104 180.1C435.041 179.93 435.189 179.752 435.36 179.766C436.012 179.83 436.472 179.077 436.522 178.835Z" fill="black"/>
<path d="M445.567 180.854C446.906 180.477 448.345 181.23 449.238 182.296C450.266 183.533 450.712 185.452 449.748 186.738C449.387 187.221 448.877 187.563 448.352 187.854C446.757 188.742 444.872 189.268 443.1 188.828C441.328 188.394 439.776 186.802 439.797 184.976C439.818 183.32 441.023 181.941 442.235 180.825" fill="black"/>
<path d="M435.764 175.225C435.764 175.225 437.125 175.239 435.345 179.774C433.566 184.308 433.396 192.871 433.396 192.871C433.396 192.871 438.252 194.89 444.787 194.719C451.322 194.549 451.988 194.549 452.158 194.044C452.329 193.539 456.348 169.021 447.466 164.821" fill="black"/>
<path opacity="0.5" d="M394.745 355.141C416.127 355.141 433.46 352.586 433.46 349.434C433.46 346.282 416.127 343.727 394.745 343.727C373.363 343.727 356.029 346.282 356.029 349.434C356.029 352.586 373.363 355.141 394.745 355.141Z" fill="#000640"/>
<path d="M350.33 270.911H387.075L385.488 267.379H348.877L350.33 270.911Z" fill="black"/>
<path d="M420.028 349.59H415.676L361.381 211.626H366.144L420.028 349.59Z" fill="black"/>
<path d="M342.526 251.104H379.271L377.684 247.572H341.073L342.526 251.104Z" fill="black"/>
<path d="M334.652 231.021H371.396L369.809 227.481H333.198L334.652 231.021Z" fill="black"/>
<path d="M380.859 349.59H376.507L322.212 211.626H326.982L380.859 349.59Z" fill="black"/>
<path d="M373.537 330.892H410.289L408.701 327.36H372.091L373.537 330.892Z" fill="black"/>
<path d="M365.804 310.802H402.549L400.961 307.269H364.351L365.804 310.802Z" fill="black"/>
<path d="M357.993 291.137H394.745L393.157 287.605H356.547L357.993 291.137Z" fill="black"/>
<path d="M370.964 137.424L369.617 134.617C369.617 134.617 367.023 135.448 364.953 135.555C362.884 135.662 362.054 136.074 362.054 136.074L360.396 138.774C360.396 138.774 366.817 140.018 370.964 137.424Z" fill="url(#paint39_linear_1_3)"/>
<path d="M370.964 137.424C370.964 137.424 374.38 137.111 376.145 138.149C377.91 139.187 379.775 145.732 380.391 150.202C381.015 154.672 382.05 172.02 382.156 175.552C382.262 179.084 382.156 187.086 382.156 187.086C382.156 187.086 372.828 189.062 366.406 188.856C359.985 188.65 354.902 183.554 354.902 183.554C354.902 183.554 355.42 176.177 356.249 173.79C357.078 171.402 358.425 167.038 357.596 163.399C356.766 159.761 354.279 149.271 354.902 145.32C355.526 141.368 354.902 140.643 357.078 139.919C359.254 139.194 360.396 138.774 360.396 138.774C360.396 138.774 365.889 140.018 370.964 137.424Z" fill="url(#paint40_linear_1_3)"/>
<path d="M362.26 146.116C362.26 146.116 361.707 150.479 358.39 155.468C355.072 160.457 350.933 165.375 349.551 166.136C348.169 166.896 345.27 166.761 343.682 165.51C342.094 164.266 331.107 151.517 331.107 151.517C331.107 151.517 331.037 149.996 332.284 148.674C333.525 147.359 334.772 147.359 334.772 147.359L345.34 156.293C345.34 156.293 352.039 144.936 353.697 142.925C355.356 140.914 357.015 140.43 358.326 140.636C359.637 140.85 362.402 143.202 362.26 146.116Z" fill="url(#paint41_linear_1_3)"/>
<path d="M334.007 147.43C334.007 147.43 331.724 145.007 330.484 144.311C329.243 143.621 325.231 142.79 324.679 142.854C324.126 142.925 324.112 143.301 324.799 143.65C325.487 143.998 327.025 144.446 327.025 144.446C327.025 144.446 325.09 145.625 325.09 146.457C325.09 147.288 326.33 148.88 327.096 148.88C327.854 148.88 328.96 148.674 328.96 148.674L331.242 150.408C331.242 150.408 331.724 148.262 334.007 147.43Z" fill="white"/>
<path d="M376.557 138.462C376.45 138.348 386.452 147.033 389.195 150.984C391.938 154.935 394.27 160.699 393.908 162.255C393.547 163.812 390.747 166.725 388.883 168.282C387.019 169.838 382.092 173.164 382.092 173.164L381.681 163.293C381.681 163.293 385.048 160.173 384.736 159.761C384.424 159.349 381.008 155.916 381.008 155.916C381.008 155.916 380.54 149.165 379.456 145.426C378.371 141.681 377.542 139.499 376.557 138.462Z" fill="url(#paint42_linear_1_3)"/>
<path d="M355.406 184.016C356.844 185.281 361.175 188.678 366.399 188.849C372.821 189.055 382.149 187.079 382.149 187.079C382.149 187.079 381.008 194.662 380.079 197.676C379.144 200.689 378.527 204.534 378.421 205.777C378.314 207.021 380.179 227.908 380.49 233.828C380.802 239.748 380.008 258.936 380.008 258.936H374.203C374.203 258.936 372.098 235.804 370.234 223.025C368.37 210.247 367.434 203.389 367.434 203.389L366.087 205.678C366.087 205.678 365.464 228.121 364.946 238.092C364.429 248.063 363.323 259.043 363.323 259.043L357.206 259.355C357.206 259.355 354.789 221.37 354.477 210.461C354.193 200.17 355.285 185.637 355.406 184.016Z" fill="url(#paint43_linear_1_3)"/>
<path d="M379.668 259.007C379.668 259.007 380.568 264.06 380.568 264.757C380.568 265.446 380.292 267.805 380.292 267.805C380.292 267.805 376.075 267.948 373.176 267.876C370.276 267.805 366.888 267.116 366.888 267.116C366.888 267.116 366.335 265.247 367.094 264.209C367.852 263.172 370.822 262.966 371.722 261.928C372.623 260.89 374.21 258.95 374.21 258.95C374.21 258.95 378.839 259.284 379.668 259.007Z" fill="url(#paint44_linear_1_3)"/>
<path d="M362.884 259.007C362.884 259.007 363.784 264.06 363.784 264.757C363.784 265.446 363.507 267.805 363.507 267.805C363.507 267.805 359.297 267.948 356.391 267.876C353.492 267.805 350.104 267.116 350.104 267.116C350.104 267.116 349.551 265.247 350.309 264.209C351.068 263.172 354.038 262.966 354.938 261.928C355.838 260.89 357.426 258.95 357.426 258.95C357.426 258.95 362.054 259.284 362.884 259.007Z" fill="url(#paint45_linear_1_3)"/>
<path d="M369.582 134.269C369.582 134.269 370.383 123.843 369.511 121.107C368.476 117.852 366.399 115.564 363.153 115.429C359.907 115.286 354.52 115.564 353.066 117.369C351.613 119.167 352.372 121.803 352.514 122.635C352.655 123.466 354.03 124.369 354.03 124.369C354.03 124.369 356.1 123.815 356.724 124.298C357.348 124.781 358.312 126.927 358.312 126.927C358.312 126.927 359.013 124.874 359.899 125.264C362.111 126.231 361.416 129.145 361.076 129.763C360.637 130.559 361.076 129.969 361.076 129.969L365.981 135.299C365.988 135.306 367.994 135.519 369.582 134.269Z" fill="black"/>
<path d="M356.731 124.298C357.355 124.781 358.319 126.927 358.319 126.927C358.319 126.927 359.021 124.874 359.907 125.264C362.118 126.231 361.423 129.145 361.083 129.763C360.644 130.559 361.083 129.969 361.083 129.969L365.988 135.299L362.054 136.06L361.912 135.093C361.912 135.093 360.396 135.647 359.495 135.647C358.595 135.647 357.56 133.778 356.384 131.767C355.207 129.756 354.038 124.355 354.038 124.355C354.038 124.355 356.114 123.815 356.731 124.298Z" fill="white"/>
<path d="M124.319 252.32C124.319 252.32 135.178 252.32 138.941 251.694C142.705 251.069 142.705 251.069 142.705 251.069L156.619 249.314L155.379 253.762C155.379 253.762 150.431 255.525 146.107 256.683C141.777 257.842 133.377 260.116 132.073 260.443C130.769 260.763 123.73 262.262 123.73 262.262" fill="url(#paint46_linear_1_3)"/>
<path d="M97.9295 271.444C97.9295 271.444 94.3075 274.408 93.1592 277.087C92.018 279.766 91.8267 283.59 92.018 284.926C92.2094 286.262 92.6843 287.605 92.6843 287.314C92.6843 287.029 91.1604 307.866 91.1604 307.866C91.1604 307.866 84.6747 313.41 82.1939 318.001C79.7131 322.592 74.1843 335.014 74.1843 335.014C74.1843 335.014 78.664 337.21 80.2872 337.502C81.9104 337.786 81.9104 337.786 81.9104 337.786C81.9104 337.786 88.8709 323.352 90.969 320.765C92.2945 319.131 97.5468 314.739 99.5527 311.299C101.552 307.859 105.181 293.518 105.181 293.518C105.181 293.518 109.852 298.585 111.95 300.88C114.048 303.176 116.621 306.424 116.621 307.284C116.621 308.144 114.806 314.547 114.331 316.842C113.857 319.138 111.95 334.908 111.95 334.908C111.95 334.908 114.622 335.483 116.912 335.192C119.201 334.908 119.584 334.425 119.584 334.425C119.584 334.425 120.916 323.523 122.157 318.171C123.397 312.82 124.829 308.321 125.212 307.461C125.594 306.601 125.687 304.782 124.446 301.058C123.206 297.327 119.392 289.588 116.344 284.997C113.297 280.406 113.297 280.406 113.297 280.406C113.297 280.406 103.175 275.175 97.9295 271.444Z" fill="black"/>
<path d="M104.954 294.42C105.889 289.225 106.471 284.926 106.471 284.926L102.742 300.234C101.764 305.841 97.4192 314.12 97.4192 314.12C97.4192 314.12 97.4192 314.142 97.4263 314.177C98.2769 313.204 99.0282 312.23 99.5598 311.32C101.254 308.385 104.125 297.59 104.954 294.42Z" fill="url(#paint47_linear_1_3)"/>
<path d="M111.95 334.929C111.95 334.929 110.39 337.353 110.327 337.672C110.263 337.992 109.944 341.339 109.944 341.339L115.281 342.533L115.664 341.496C115.664 341.496 121.129 344.239 122.15 344.303C123.17 344.367 128.189 344.303 128.89 344.111C129.592 343.919 130.542 342.647 129.592 342.263C128.635 341.88 125.396 341.752 124.63 341.311C123.865 340.863 119.988 337.296 119.605 336.279C119.222 335.256 119.095 334.687 119.095 334.687C119.095 334.687 117.067 335.817 111.95 334.929Z" fill="url(#paint48_linear_1_3)"/>
<path d="M74.3332 335.213C74.3332 335.213 72.6178 337.601 72.2847 338.653C71.9516 339.705 70.8529 343.052 70.8529 343.052C70.8529 343.052 72.4265 344.296 73.5251 344.722C74.6238 345.149 74.8577 345.248 74.8577 345.248L75.6232 344.481C75.6232 344.481 78.1962 346.968 80.3935 347.537C82.5837 348.112 87.0209 348.304 88.5449 347.92C90.0688 347.537 90.7847 346.058 90.168 345.532C89.5514 345.007 87.4533 344.815 86.1632 343.713C84.8732 342.612 82.4916 340.65 82.1585 339.648C81.8253 338.646 81.9175 337.786 81.9175 337.786C81.9175 337.786 81.2937 338.227 74.3332 335.213Z" fill="url(#paint49_linear_1_3)"/>
<path d="M129.684 343.514C128.912 343.642 127.742 343.685 126.027 343.784C122.66 343.976 121.639 342.953 117.826 341.617C114.799 340.551 111.447 339.25 110.199 338.76C110.086 339.847 109.944 341.332 109.944 341.332L115.281 342.526L115.664 341.489C115.664 341.489 121.129 344.232 122.15 344.296C123.17 344.36 128.189 344.296 128.89 344.104C129.16 344.033 129.465 343.798 129.684 343.514Z" fill="url(#paint50_linear_1_3)"/>
<path d="M88.715 347.352C87.51 347.736 81.8466 347.8 79.309 346.584C77.2393 345.596 73.114 341.958 71.6397 340.636C71.2498 341.83 70.8529 343.052 70.8529 343.052C70.8529 343.052 72.4265 344.296 73.5251 344.722C74.6238 345.149 74.8577 345.248 74.8577 345.248L75.6232 344.481C75.6232 344.481 78.1962 346.968 80.3935 347.537C82.5837 348.112 87.0209 348.304 88.5449 347.92C89.5443 347.672 90.1964 346.947 90.3523 346.328C89.8562 346.819 89.2678 347.181 88.715 347.352ZM97.9295 271.444L98.8864 269.724L114.076 279.091L113.282 280.427C113.282 280.434 101.24 274.187 97.9295 271.444Z" fill="black"/>
<path d="M98.8864 269.724C98.6454 269.575 109.504 255.703 113.701 251.239C117.897 246.776 121.646 244.289 124.638 244.481C127.629 244.673 132.264 249.008 133.221 252.959C134.178 256.911 130.358 265.069 129.472 266.533C128.579 267.997 124.198 270.549 120.824 273.164C117.457 275.779 116.564 276.987 115.614 277.691C114.657 278.395 114.09 279.091 114.09 279.091C114.09 279.091 101.048 271.067 98.8864 269.724Z" fill="url(#paint51_linear_1_3)"/>
<path d="M99.6307 269.966C99.9 269.788 105.4 260.706 114.098 251.63C119.669 245.817 124.127 244.687 124.127 244.687C124.127 244.687 121.604 244.332 116.401 248.603C111.964 252.256 98.8723 269.724 98.8723 269.724L99.6307 269.966Z" fill="white"/>
<path d="M131.938 249.967C131.938 249.967 137.722 245.76 138.615 244.936C139.508 244.104 143.577 243.728 145.668 244.744C147.766 245.767 150.247 251.502 150.183 253.286C150.119 255.07 148.787 256.47 148.787 256.47L146.753 255.958C146.753 255.958 145.165 257.742 144.591 258.062C144.017 258.382 143.194 258.382 143.194 258.382C143.194 258.382 141.862 261.125 141.415 261.125C140.969 261.125 139.572 260.173 139.572 260.173C139.572 260.173 135.312 261.637 135.121 261.253C134.93 260.869 132.768 257.813 132.768 257.813C132.768 257.813 134.547 253.855 131.938 249.967Z" fill="black"/>
<path d="M125.517 244.744C125.517 244.744 136.262 246.336 140.076 246.272C143.889 246.208 143.889 246.208 143.889 246.208L161.687 244.232L162.134 248.439C162.134 248.439 150.885 251.751 146.434 252.263C141.982 252.775 133.342 253.791 132.002 253.919C130.67 254.047 123.482 254.494 123.482 254.494" fill="url(#paint52_linear_1_3)"/>
<path d="M161.751 245.064C161.751 245.064 164.735 243.728 165.118 242.96C165.501 242.193 165.373 239.712 165.82 238.689C166.266 237.665 168.237 234.929 168.619 234.929C169.002 234.929 169.257 234.993 169.066 236.713C168.875 238.433 168.428 240.537 168.428 241.368C168.428 242.2 168.619 244.616 168.045 245.32C167.471 246.023 166.394 246.272 165.628 246.656C164.863 247.039 162.006 247.615 162.006 247.615L161.751 245.064Z" fill="white"/>
<path d="M139.26 77.3504H80.0533V81.92H139.26V77.3504Z" fill="#005CB4"/>
<path d="M167.726 87.0583H108.519V91.6279H167.726V87.0583Z" fill="#00759F"/>
<path d="M145.186 95.6148H39.6368V100.185H145.186V95.6148Z" fill="#4529AC"/>
<path d="M304.017 100.185H198.467V104.754H304.017V100.185Z" fill="#3129AC"/>
<path d="M251.643 90.4766H214.068V95.0463H251.643V90.4766Z" fill="#4529AC"/>
<path d="M326.217 91.0523H285.566V95.6219H326.217V91.0523Z" fill="#0075B4"/>
<path opacity="0.3" d="M445.318 92.765H404.668V97.3347H445.318V92.765Z" fill="white"/>
<path opacity="0.1" d="M404.271 77.3504H363.621V81.92H404.271V77.3504Z" fill="white"/>
<path d="M240.259 46.5282H200.977V51.0979H240.259V46.5282Z" fill="#00759F"/>
<path d="M266.443 59.0859H220.334V63.6556H266.443V59.0859Z" fill="#313BAC"/>
<path d="M229.854 340.508C267.176 340.508 297.432 310.172 297.432 272.752C297.432 235.331 267.176 204.996 229.854 204.996C192.531 204.996 162.276 235.331 162.276 272.752C162.276 310.172 192.531 340.508 229.854 340.508Z" fill="url(#paint53_linear_1_3)"/>
<path d="M229.854 205.003V272.759L288.196 238.554C276.465 218.477 254.733 205.003 229.854 205.003Z" fill="url(#paint54_linear_1_3)"/>
<path opacity="0.3" d="M210.836 44.0692C208.766 44.0692 206.831 44.6378 205.173 45.6256C204.776 39.8407 199.977 35.271 194.108 35.271C192.839 35.271 191.627 35.4984 190.493 35.8893C188.856 30.5876 183.93 26.7358 178.103 26.7358C177.664 26.7358 177.231 26.7642 176.806 26.8068C171.362 27.148 166.833 30.8435 165.26 35.868C164.118 35.47 162.899 35.2426 161.623 35.2426C155.754 35.2426 150.956 39.8123 150.559 45.5972C148.9 44.6094 146.965 44.0408 144.895 44.0408C138.764 44.0408 133.795 49.0227 133.795 55.163C133.795 61.3032 138.764 66.2851 144.895 66.2851C145.307 66.2851 145.703 66.2638 146.107 66.214H163.147C163.643 66.2709 164.147 66.3135 164.664 66.3135C165.111 66.3135 165.55 66.2922 165.99 66.2496H190.323C190.571 66.2638 190.819 66.2851 191.067 66.2851C191.323 66.2851 191.564 66.2638 191.812 66.2496H209.624C210.021 66.2922 210.425 66.3135 210.836 66.3135C216.967 66.3135 221.929 61.3317 221.929 55.1914C221.936 49.0511 216.967 44.0692 210.836 44.0692Z" fill="url(#paint55_linear_1_3)"/>
<defs>
<linearGradient id="paint0_linear_1_3" x1="284.529" y1="331.902" x2="284.135" y2="328.854" gradientUnits="userSpaceOnUse">
<stop stop-color="#7700BB"/>
<stop offset="1" stop-color="#00008B"/>
</linearGradient>
<linearGradient id="paint1_linear_1_3" x1="11.9167" y1="149.238" x2="548.217" y2="149.238" gradientUnits="userSpaceOnUse">
<stop stop-color="#7700BB"/>
<stop offset="1"/>
</linearGradient>
<linearGradient id="paint2_linear_1_3" x1="110.699" y1="70.9146" x2="109.612" y2="44.9968" gradientUnits="userSpaceOnUse">
<stop stop-color="#88CFDA"/>
<stop offset="0.0506" stop-color="#93D1D5"/>
<stop offset="0.2502" stop-color="#BAD7C2"/>
<stop offset="0.4481" stop-color="#D8DBB3"/>
<stop offset="0.6414" stop-color="#EEDEA8"/>
<stop offset="0.8279" stop-color="#FBE0A2"/>
<stop offset="1" stop-color="#FFE1A0"/>
</linearGradient>
<linearGradient id="paint3_linear_1_3" x1="66.827" y1="136.64" x2="66.827" y2="189.915" gradientUnits="userSpaceOnUse">
<stop stop-color="#7633FF"/>
<stop offset="0.1585" stop-color="#7137FF"/>
<stop offset="0.3535" stop-color="#6243FF"/>
<stop offset="0.5676" stop-color="#4957FF"/>
<stop offset="0.7937" stop-color="#2672FF"/>
<stop offset="1" stop-color="#0090FF"/>
</linearGradient>
<linearGradient id="paint4_linear_1_3" x1="78.1162" y1="136.64" x2="78.1162" y2="189.915" gradientUnits="userSpaceOnUse">
<stop stop-color="#7633FF"/>
<stop offset="0.1585" stop-color="#7137FF"/>
<stop offset="0.3535" stop-color="#6243FF"/>
<stop offset="0.5676" stop-color="#4957FF"/>
<stop offset="0.7937" stop-color="#2672FF"/>
<stop offset="1" stop-color="#0090FF"/>
</linearGradient>
<linearGradient id="paint5_linear_1_3" x1="89.4057" y1="136.64" x2="89.4057" y2="189.915" gradientUnits="userSpaceOnUse">
<stop stop-color="#7633FF"/>
<stop offset="0.1585" stop-color="#7137FF"/>
<stop offset="0.3535" stop-color="#6243FF"/>
<stop offset="0.5676" stop-color="#4957FF"/>
<stop offset="0.7937" stop-color="#2672FF"/>
<stop offset="1" stop-color="#0090FF"/>
</linearGradient>
<linearGradient id="paint6_linear_1_3" x1="100.695" y1="136.64" x2="100.695" y2="189.915" gradientUnits="userSpaceOnUse">
<stop stop-color="#7633FF"/>
<stop offset="0.1585" stop-color="#7137FF"/>
<stop offset="0.3535" stop-color="#6243FF"/>
<stop offset="0.5676" stop-color="#4957FF"/>
<stop offset="0.7937" stop-color="#2672FF"/>
<stop offset="1" stop-color="#0090FF"/>
</linearGradient>
<linearGradient id="paint7_linear_1_3" x1="111.984" y1="136.64" x2="111.984" y2="189.915" gradientUnits="userSpaceOnUse">
<stop stop-color="#7633FF"/>
<stop offset="0.1585" stop-color="#7137FF"/>
<stop offset="0.3535" stop-color="#6243FF"/>
<stop offset="0.5676" stop-color="#4957FF"/>
<stop offset="0.7937" stop-color="#2672FF"/>
<stop offset="1" stop-color="#0090FF"/>
</linearGradient>
<linearGradient id="paint8_linear_1_3" x1="123.274" y1="136.64" x2="123.274" y2="189.915" gradientUnits="userSpaceOnUse">
<stop stop-color="#7633FF"/>
<stop offset="0.1585" stop-color="#7137FF"/>
<stop offset="0.3535" stop-color="#6243FF"/>
<stop offset="0.5676" stop-color="#4957FF"/>
<stop offset="0.7937" stop-color="#2672FF"/>
<stop offset="1" stop-color="#0090FF"/>
</linearGradient>
<linearGradient id="paint9_linear_1_3" x1="134.563" y1="136.64" x2="134.563" y2="189.915" gradientUnits="userSpaceOnUse">
<stop stop-color="#7633FF"/>
<stop offset="0.1585" stop-color="#7137FF"/>
<stop offset="0.3535" stop-color="#6243FF"/>
<stop offset="0.5676" stop-color="#4957FF"/>
<stop offset="0.7937" stop-color="#2672FF"/>
<stop offset="1" stop-color="#0090FF"/>
</linearGradient>
<linearGradient id="paint10_linear_1_3" x1="145.852" y1="136.64" x2="145.852" y2="189.915" gradientUnits="userSpaceOnUse">
<stop stop-color="#7633FF"/>
<stop offset="0.1585" stop-color="#7137FF"/>
<stop offset="0.3535" stop-color="#6243FF"/>
<stop offset="0.5676" stop-color="#4957FF"/>
<stop offset="0.7937" stop-color="#2672FF"/>
<stop offset="1" stop-color="#0090FF"/>
</linearGradient>
<linearGradient id="paint11_linear_1_3" x1="157.141" y1="136.64" x2="157.141" y2="189.915" gradientUnits="userSpaceOnUse">
<stop stop-color="#7633FF"/>
<stop offset="0.1585" stop-color="#7137FF"/>
<stop offset="0.3535" stop-color="#6243FF"/>
<stop offset="0.5676" stop-color="#4957FF"/>
<stop offset="0.7937" stop-color="#2672FF"/>
<stop offset="1" stop-color="#0090FF"/>
</linearGradient>
<linearGradient id="paint12_linear_1_3" x1="168.431" y1="136.64" x2="168.431" y2="189.915" gradientUnits="userSpaceOnUse">
<stop stop-color="#7633FF"/>
<stop offset="0.1585" stop-color="#7137FF"/>
<stop offset="0.3535" stop-color="#6243FF"/>
<stop offset="0.5676" stop-color="#4957FF"/>
<stop offset="0.7937" stop-color="#2672FF"/>
<stop offset="1" stop-color="#0090FF"/>
</linearGradient>
<linearGradient id="paint13_linear_1_3" x1="179.72" y1="136.64" x2="179.72" y2="189.915" gradientUnits="userSpaceOnUse">
<stop stop-color="#7633FF"/>
<stop offset="0.1585" stop-color="#7137FF"/>
<stop offset="0.3535" stop-color="#6243FF"/>
<stop offset="0.5676" stop-color="#4957FF"/>
<stop offset="0.7937" stop-color="#2672FF"/>
<stop offset="1" stop-color="#0090FF"/>
</linearGradient>
<linearGradient id="paint14_linear_1_3" x1="335.464" y1="298.059" x2="335.464" y2="113.119" gradientUnits="userSpaceOnUse">
<stop stop-color="#A1BAFF"/>
<stop offset="0.4332" stop-color="white"/>
</linearGradient>
<linearGradient id="paint15_linear_1_3" x1="339.734" y1="225.384" x2="339.734" y2="116.764" gradientUnits="userSpaceOnUse">
<stop stop-color="#88CFDA"/>
<stop offset="0.0506" stop-color="#93D1D5"/>
<stop offset="0.2502" stop-color="#BAD7C2"/>
<stop offset="0.4481" stop-color="#D8DBB3"/>
<stop offset="0.6414" stop-color="#EEDEA8"/>
<stop offset="0.8279" stop-color="#FBE0A2"/>
<stop offset="1" stop-color="#FFE1A0"/>
</linearGradient>
<linearGradient id="paint16_linear_1_3" x1="281.286" y1="341.722" x2="281.286" y2="197.122" gradientUnits="userSpaceOnUse">
<stop stop-color="#88CFDA"/>
<stop offset="0.1838" stop-color="#98D1D2"/>
<stop offset="0.5428" stop-color="#C2D8BE"/>
<stop offset="1" stop-color="#FFE1A0"/>
</linearGradient>
<linearGradient id="paint17_linear_1_3" x1="307.315" y1="228.105" x2="307.315" y2="167.688" gradientUnits="userSpaceOnUse">
<stop stop-color="#7633FF"/>
<stop offset="0.1585" stop-color="#7137FF"/>
<stop offset="0.3535" stop-color="#6243FF"/>
<stop offset="0.5676" stop-color="#4957FF"/>
<stop offset="0.7937" stop-color="#2672FF"/>
<stop offset="1" stop-color="#0090FF"/>
</linearGradient>
<linearGradient id="paint18_linear_1_3" x1="206.23" y1="131.106" x2="211.925" y2="131.106" gradientUnits="userSpaceOnUse">
<stop stop-color="#7633FF"/>
<stop offset="0.1585" stop-color="#7137FF"/>
<stop offset="0.3535" stop-color="#6243FF"/>
<stop offset="0.5676" stop-color="#4957FF"/>
<stop offset="0.7937" stop-color="#2672FF"/>
<stop offset="1" stop-color="#0090FF"/>
</linearGradient>
<linearGradient id="paint19_linear_1_3" x1="206.23" y1="150.455" x2="211.925" y2="150.455" gradientUnits="userSpaceOnUse">
<stop stop-color="#7633FF"/>
<stop offset="0.1585" stop-color="#7137FF"/>
<stop offset="0.3535" stop-color="#6243FF"/>
<stop offset="0.5676" stop-color="#4957FF"/>
<stop offset="0.7937" stop-color="#2672FF"/>
<stop offset="1" stop-color="#0090FF"/>
</linearGradient>
<linearGradient id="paint20_linear_1_3" x1="206.23" y1="171.707" x2="211.925" y2="171.707" gradientUnits="userSpaceOnUse">
<stop stop-color="#7633FF"/>
<stop offset="0.1585" stop-color="#7137FF"/>
<stop offset="0.3535" stop-color="#6243FF"/>
<stop offset="0.5676" stop-color="#4957FF"/>
<stop offset="0.7937" stop-color="#2672FF"/>
<stop offset="1" stop-color="#0090FF"/>
</linearGradient>
<linearGradient id="paint21_linear_1_3" x1="352.541" y1="261.313" x2="460.392" y2="261.313" gradientUnits="userSpaceOnUse">
<stop stop-color="#270036"/>
<stop offset="0.5936" stop-color="#4F008B"/>
<stop offset="1" stop-color="#4C24B1"/>
</linearGradient>
<linearGradient id="paint22_linear_1_3" x1="250.677" y1="222.364" x2="250.677" y2="158.998" gradientUnits="userSpaceOnUse">
<stop stop-color="#7633FF"/>
<stop offset="0.1585" stop-color="#7137FF"/>
<stop offset="0.3535" stop-color="#6243FF"/>
<stop offset="0.5676" stop-color="#4957FF"/>
<stop offset="0.7937" stop-color="#2672FF"/>
<stop offset="1" stop-color="#0090FF"/>
</linearGradient>
<linearGradient id="paint23_linear_1_3" x1="264.569" y1="224.077" x2="264.569" y2="192.83" gradientUnits="userSpaceOnUse">
<stop stop-color="#7633FF"/>
<stop offset="0.1585" stop-color="#7137FF"/>
<stop offset="0.3535" stop-color="#6243FF"/>
<stop offset="0.5676" stop-color="#4957FF"/>
<stop offset="0.7937" stop-color="#2672FF"/>
<stop offset="1" stop-color="#0090FF"/>
</linearGradient>
<linearGradient id="paint24_linear_1_3" x1="278.657" y1="222.935" x2="278.657" y2="201.179" gradientUnits="userSpaceOnUse">
<stop stop-color="#311341"/>
<stop offset="0.2299" stop-color="#3113C2"/>
<stop offset="0.3479" stop-color="#2F18C5"/>
<stop offset="0.4931" stop-color="#2927CC"/>
<stop offset="0.6524" stop-color="#1F40D8"/>
<stop offset="0.8219" stop-color="#1263E9"/>
<stop offset="0.9978" stop-color="#008FFF"/>
<stop offset="1" stop-color="#0090FF"/>
</linearGradient>
<linearGradient id="paint25_linear_1_3" x1="313.725" y1="287.153" x2="313.725" y2="249.861" gradientUnits="userSpaceOnUse">
<stop stop-color="#7633FF"/>
<stop offset="0.1585" stop-color="#7137FF"/>
<stop offset="0.3535" stop-color="#6243FF"/>
<stop offset="0.5676" stop-color="#4957FF"/>
<stop offset="0.7937" stop-color="#2672FF"/>
<stop offset="1" stop-color="#0090FF"/>
</linearGradient>
<linearGradient id="paint26_linear_1_3" x1="320.134" y1="286.9" x2="320.134" y2="248.805" gradientUnits="userSpaceOnUse">
<stop stop-color="#311341"/>
<stop offset="0.2299" stop-color="#3113C2"/>
<stop offset="0.3479" stop-color="#2F18C5"/>
<stop offset="0.4931" stop-color="#2927CC"/>
<stop offset="0.6524" stop-color="#1F40D8"/>
<stop offset="0.8219" stop-color="#1263E9"/>
<stop offset="0.9978" stop-color="#008FFF"/>
<stop offset="1" stop-color="#0090FF"/>
</linearGradient>
<linearGradient id="paint27_linear_1_3" x1="73.1488" y1="194.996" x2="94.0356" y2="194.996" gradientUnits="userSpaceOnUse">
<stop stop-color="#7633FF"/>
<stop offset="0.1585" stop-color="#7137FF"/>
<stop offset="0.3535" stop-color="#6243FF"/>
<stop offset="0.5676" stop-color="#4957FF"/>
<stop offset="0.7937" stop-color="#2672FF"/>
<stop offset="1" stop-color="#0090FF"/>
</linearGradient>
<linearGradient id="paint28_linear_1_3" x1="73.5561" y1="198.456" x2="64.5235" y2="204.176" gradientUnits="userSpaceOnUse">
<stop stop-color="#A1BAFF"/>
<stop offset="0.4332" stop-color="white"/>
</linearGradient>
<linearGradient id="paint29_linear_1_3" x1="58.9142" y1="306.087" x2="55.956" y2="235.581" gradientUnits="userSpaceOnUse">
<stop stop-color="#A1BAFF"/>
<stop offset="0.4332" stop-color="white"/>
<stop offset="0.5794" stop-color="#FBFCFF"/>
<stop offset="0.7123" stop-color="#F0F4FF"/>
<stop offset="0.84" stop-color="#DEE7FF"/>
<stop offset="0.9637" stop-color="#C4D4FF"/>
<stop offset="1" stop-color="#BBCDFF"/>
</linearGradient>
<linearGradient id="paint30_linear_1_3" x1="68.6679" y1="305.687" x2="65.7107" y2="235.176" gradientUnits="userSpaceOnUse">
<stop stop-color="#A1BAFF"/>
<stop offset="0.4332" stop-color="white"/>
<stop offset="0.5794" stop-color="#FBFCFF"/>
<stop offset="0.7123" stop-color="#F0F4FF"/>
<stop offset="0.84" stop-color="#DEE7FF"/>
<stop offset="0.9637" stop-color="#C4D4FF"/>
<stop offset="1" stop-color="#BBCDFF"/>
</linearGradient>
<linearGradient id="paint31_linear_1_3" x1="63.0493" y1="215.421" x2="70.8492" y2="254.317" gradientUnits="userSpaceOnUse">
<stop stop-color="#311341"/>
<stop offset="0.6346" stop-color="#3113C2"/>
<stop offset="0.6906" stop-color="#2F18C5"/>
<stop offset="0.7595" stop-color="#2927CC"/>
<stop offset="0.8351" stop-color="#1F40D8"/>
<stop offset="0.9155" stop-color="#1263E9"/>
<stop offset="0.999" stop-color="#008FFF"/>
<stop offset="1" stop-color="#0090FF"/>
</linearGradient>
<linearGradient id="paint32_linear_1_3" x1="49.5873" y1="203.887" x2="60.2634" y2="203.887" gradientUnits="userSpaceOnUse">
<stop stop-color="#A1BAFF"/>
<stop offset="0.4332" stop-color="white"/>
</linearGradient>
<linearGradient id="paint33_linear_1_3" x1="55.0388" y1="181.762" x2="68.6553" y2="181.762" gradientUnits="userSpaceOnUse">
<stop stop-color="#88CFDA"/>
<stop offset="0.0506" stop-color="#93D1D5"/>
<stop offset="0.2502" stop-color="#BAD7C2"/>
<stop offset="0.4481" stop-color="#D8DBB3"/>
<stop offset="0.6414" stop-color="#EEDEA8"/>
<stop offset="0.8279" stop-color="#FBE0A2"/>
<stop offset="1" stop-color="#FFE1A0"/>
</linearGradient>
<linearGradient id="paint34_linear_1_3" x1="45.4104" y1="198.265" x2="78.4276" y2="198.265" gradientUnits="userSpaceOnUse">
<stop stop-color="#88CFDA"/>
<stop offset="0.0506" stop-color="#93D1D5"/>
<stop offset="0.2502" stop-color="#BAD7C2"/>
<stop offset="0.4481" stop-color="#D8DBB3"/>
<stop offset="0.6414" stop-color="#EEDEA8"/>
<stop offset="0.8279" stop-color="#FBE0A2"/>
<stop offset="1" stop-color="#FFE1A0"/>
</linearGradient>
<linearGradient id="paint35_linear_1_3" x1="60.6285" y1="230.849" x2="72.7936" y2="254.182" gradientUnits="userSpaceOnUse">
<stop stop-color="#311341"/>
<stop offset="0.6346" stop-color="#3113C2"/>
<stop offset="0.6906" stop-color="#2F18C5"/>
<stop offset="0.7595" stop-color="#2927CC"/>
<stop offset="0.8351" stop-color="#1F40D8"/>
<stop offset="0.9155" stop-color="#1263E9"/>
<stop offset="0.999" stop-color="#008FFF"/>
<stop offset="1" stop-color="#0090FF"/>
</linearGradient>
<linearGradient id="paint36_linear_1_3" x1="429.14" y1="200.316" x2="408.882" y2="200.316" gradientUnits="userSpaceOnUse">
<stop stop-color="#7633FF"/>
<stop offset="0.1585" stop-color="#7137FF"/>
<stop offset="0.3535" stop-color="#6243FF"/>
<stop offset="0.5676" stop-color="#4957FF"/>
<stop offset="0.7937" stop-color="#2672FF"/>
<stop offset="1" stop-color="#0090FF"/>
</linearGradient>
<linearGradient id="paint37_linear_1_3" x1="437.995" y1="223.998" x2="424.905" y2="289.28" gradientUnits="userSpaceOnUse">
<stop stop-color="#3822D1"/>
<stop offset="0.1652" stop-color="#3527D3"/>
<stop offset="0.3684" stop-color="#2E36DA"/>
<stop offset="0.5916" stop-color="#214FE4"/>
<stop offset="0.8272" stop-color="#0F72F2"/>
<stop offset="1" stop-color="#0090FF"/>
</linearGradient>
<linearGradient id="paint38_linear_1_3" x1="446.706" y1="187.48" x2="433.5" y2="187.48" gradientUnits="userSpaceOnUse">
<stop stop-color="#88CFDA"/>
<stop offset="0.0506" stop-color="#93D1D5"/>
<stop offset="0.2502" stop-color="#BAD7C2"/>
<stop offset="0.4481" stop-color="#D8DBB3"/>
<stop offset="0.6414" stop-color="#EEDEA8"/>
<stop offset="0.8279" stop-color="#FBE0A2"/>
<stop offset="1" stop-color="#FFE1A0"/>
</linearGradient>
<linearGradient id="paint39_linear_1_3" x1="360.395" y1="136.844" x2="370.964" y2="136.844" gradientUnits="userSpaceOnUse">
<stop stop-color="#7633FF"/>
<stop offset="0.1585" stop-color="#7137FF"/>
<stop offset="0.3535" stop-color="#6243FF"/>
<stop offset="0.5676" stop-color="#4957FF"/>
<stop offset="0.7937" stop-color="#2672FF"/>
<stop offset="1" stop-color="#0090FF"/>
</linearGradient>
<linearGradient id="paint40_linear_1_3" x1="367.182" y1="138.402" x2="373.473" y2="185.458" gradientUnits="userSpaceOnUse">
<stop stop-color="#7633FF"/>
<stop offset="0.1585" stop-color="#7137FF"/>
<stop offset="0.3535" stop-color="#6243FF"/>
<stop offset="0.5676" stop-color="#4957FF"/>
<stop offset="0.7937" stop-color="#2672FF"/>
<stop offset="1" stop-color="#0090FF"/>
</linearGradient>
<linearGradient id="paint41_linear_1_3" x1="321.583" y1="156.639" x2="366.316" y2="150.355" gradientUnits="userSpaceOnUse">
<stop stop-color="#5E60FF"/>
<stop offset="0.1814" stop-color="#5963FF"/>
<stop offset="0.4044" stop-color="#4A6AFF"/>
<stop offset="0.6491" stop-color="#3177FF"/>
<stop offset="0.9079" stop-color="#0E89FF"/>
<stop offset="1" stop-color="#0090FF"/>
</linearGradient>
<linearGradient id="paint42_linear_1_3" x1="382.776" y1="153.342" x2="394.925" y2="161.025" gradientUnits="userSpaceOnUse">
<stop stop-color="#591DDB"/>
<stop offset="0.1609" stop-color="#5522DD"/>
<stop offset="0.3589" stop-color="#4931E1"/>
<stop offset="0.5762" stop-color="#364AE9"/>
<stop offset="0.8058" stop-color="#1B6DF4"/>
<stop offset="1" stop-color="#0090FF"/>
</linearGradient>
<linearGradient id="paint43_linear_1_3" x1="368.296" y1="185.063" x2="368.296" y2="262.584" gradientUnits="userSpaceOnUse">
<stop stop-color="#311341"/>
<stop offset="0.2299" stop-color="#3113C2"/>
<stop offset="0.3479" stop-color="#2F18C5"/>
<stop offset="0.4931" stop-color="#2927CC"/>
<stop offset="0.6524" stop-color="#1F40D8"/>
<stop offset="0.8219" stop-color="#1263E9"/>
<stop offset="0.9978" stop-color="#008FFF"/>
<stop offset="1" stop-color="#0090FF"/>
</linearGradient>
<linearGradient id="paint44_linear_1_3" x1="373.629" y1="257.209" x2="373.629" y2="271.553" gradientUnits="userSpaceOnUse">
<stop stop-color="#270036"/>
<stop offset="0.5936" stop-color="#4F008B"/>
<stop offset="1" stop-color="#4C24B1"/>
</linearGradient>
<linearGradient id="paint45_linear_1_3" x1="356.844" y1="257.209" x2="356.844" y2="271.553" gradientUnits="userSpaceOnUse">
<stop stop-color="#270036"/>
<stop offset="0.5936" stop-color="#4F008B"/>
<stop offset="1" stop-color="#4C24B1"/>
</linearGradient>
<linearGradient id="paint46_linear_1_3" x1="123.733" y1="255.789" x2="182.594" y2="255.789" gradientUnits="userSpaceOnUse">
<stop stop-color="#311341"/>
<stop offset="0.2299" stop-color="#3113C2"/>
<stop offset="0.3479" stop-color="#2F18C5"/>
<stop offset="0.4931" stop-color="#2927CC"/>
<stop offset="0.6524" stop-color="#1F40D8"/>
<stop offset="0.8219" stop-color="#1263E9"/>
<stop offset="0.9978" stop-color="#008FFF"/>
<stop offset="1" stop-color="#0090FF"/>
</linearGradient>
<linearGradient id="paint47_linear_1_3" x1="97.4134" y1="299.544" x2="106.468" y2="299.544" gradientUnits="userSpaceOnUse">
<stop stop-color="#7633FF"/>
<stop offset="0.1106" stop-color="#6640FF"/>
<stop offset="0.5243" stop-color="#2F6BFF"/>
<stop offset="0.8331" stop-color="#0D86FF"/>
<stop offset="1" stop-color="#0090FF"/>
</linearGradient>
<linearGradient id="paint48_linear_1_3" x1="109.946" y1="339.496" x2="129.99" y2="339.496" gradientUnits="userSpaceOnUse">
<stop stop-color="#27004F"/>
<stop offset="1" stop-color="#004C81"/>
</linearGradient>
<linearGradient id="paint49_linear_1_3" x1="70.8519" y1="341.671" x2="90.3836" y2="341.671" gradientUnits="userSpaceOnUse">
<stop stop-color="#27004F"/>
<stop offset="1" stop-color="#004C81"/>
</linearGradient>
<linearGradient id="paint50_linear_1_3" x1="109.946" y1="341.54" x2="129.685" y2="341.54" gradientUnits="userSpaceOnUse">
<stop stop-color="#27004F"/>
<stop offset="1" stop-color="#004C81"/>
</linearGradient>
<linearGradient id="paint51_linear_1_3" x1="98.8811" y1="261.786" x2="133.364" y2="261.786" gradientUnits="userSpaceOnUse">
<stop stop-color="#A1BAFF"/>
<stop offset="0.4332" stop-color="white"/>
</linearGradient>
<linearGradient id="paint52_linear_1_3" x1="166.145" y1="249.083" x2="116.236" y2="254.341" gradientUnits="userSpaceOnUse">
<stop stop-color="#A1BAFF"/>
<stop offset="0.4332" stop-color="white"/>
</linearGradient>
<linearGradient id="paint53_linear_1_3" x1="162.28" y1="272.752" x2="297.429" y2="272.752" gradientUnits="userSpaceOnUse">
<stop stop-color="#270036"/>
<stop offset="0.5936" stop-color="#4F008B"/>
<stop offset="1" stop-color="#4C24B1"/>
</linearGradient>
<linearGradient id="paint54_linear_1_3" x1="221.877" y1="271.746" x2="271.373" y2="222.379" gradientUnits="userSpaceOnUse">
<stop stop-color="#7633FF"/>
<stop offset="0.1585" stop-color="#7137FF"/>
<stop offset="0.3535" stop-color="#6243FF"/>
<stop offset="0.5676" stop-color="#4957FF"/>
<stop offset="0.7937" stop-color="#2672FF"/>
<stop offset="1" stop-color="#0090FF"/>
</linearGradient>
<linearGradient id="paint55_linear_1_3" x1="133.804" y1="46.5302" x2="221.934" y2="46.5302" gradientUnits="userSpaceOnUse">
<stop stop-color="#A1BAFF"/>
<stop offset="0.0888" stop-color="#ACC2FF"/>
<stop offset="0.4988" stop-color="#D9E3FF"/>
<stop offset="0.816" stop-color="#F5F7FF"/>
<stop offset="1" stop-color="white"/>
</linearGradient>
</defs>
</svg>
