<svg width="30" height="30" viewBox="0 0 30 30" fill="none" xmlns="http://www.w3.org/2000/svg">
<g clip-path="url(#clip0_32_402)">
<path fill-rule="evenodd" clip-rule="evenodd" d="M3.75 29.0625V3.75C3.75 2.75544 4.14509 1.80161 4.84835 1.09835C5.55161 0.395088 6.50544 0 7.5 0L22.5 0C23.4946 0 24.4484 0.395088 25.1516 1.09835C25.8549 1.80161 26.25 2.75544 26.25 3.75V29.0625C26.2501 29.2253 26.2078 29.3853 26.1273 29.5268C26.0468 29.6683 25.9308 29.7864 25.7908 29.8695C25.6508 29.9525 25.4916 29.9977 25.3288 30.0005C25.166 30.0034 25.0053 29.9638 24.8625 29.8856L15 24.5044L5.1375 29.8856C4.99468 29.9638 4.83397 30.0034 4.6712 30.0005C4.50842 29.9977 4.34919 29.9525 4.20917 29.8695C4.06916 29.7864 3.95318 29.6683 3.87267 29.5268C3.79216 29.3853 3.74988 29.2253 3.75 29.0625ZM20.3512 10.9762C20.5273 10.8002 20.6262 10.5615 20.6262 10.3125C20.6262 10.0635 20.5273 9.82479 20.3512 9.64875C20.1752 9.47271 19.9365 9.37382 19.6875 9.37382C19.4385 9.37382 19.1998 9.47271 19.0238 9.64875L14.0625 14.6119L11.9138 12.4613C11.8266 12.3741 11.7231 12.3049 11.6092 12.2578C11.4953 12.2106 11.3733 12.1863 11.25 12.1863C11.1267 12.1863 11.0047 12.2106 10.8908 12.2578C10.7769 12.3049 10.6734 12.3741 10.5863 12.4613C10.4991 12.5484 10.4299 12.6519 10.3828 12.7658C10.3356 12.8797 10.3113 13.0017 10.3113 13.125C10.3113 13.2483 10.3356 13.3703 10.3828 13.4842C10.4299 13.5981 10.4991 13.7016 10.5863 13.7887L13.3988 16.6012C13.4858 16.6886 13.5893 16.7578 13.7032 16.8051C13.8171 16.8523 13.9392 16.8767 14.0625 16.8767C14.1858 16.8767 14.3079 16.8523 14.4218 16.8051C14.5357 16.7578 14.6392 16.6886 14.7263 16.6012L20.3512 10.9762Z" fill="url(#paint0_linear_32_402)"/>
</g>
<defs>
<linearGradient id="paint0_linear_32_402" x1="15" y1="0" x2="15" y2="30.0007" gradientUnits="userSpaceOnUse">
<stop stop-color="#FF2626"/>
<stop offset="1" stop-color="#FCFF61"/>
</linearGradient>
<clipPath id="clip0_32_402">
<rect width="30" height="30" fill="white"/>
</clipPath>
</defs>
</svg>
