<svg width="30" height="30" viewBox="0 0 30 30" fill="none" xmlns="http://www.w3.org/2000/svg">
<path d="M25.3125 7.5H21.5625V5.15625C21.5625 4.12207 20.7217 3.28125 19.6875 3.28125H10.3125C9.27832 3.28125 8.4375 4.12207 8.4375 5.15625V7.5H4.6875C4.16895 7.5 3.75 7.91895 3.75 8.4375V9.375C3.75 9.50391 3.85547 9.60938 3.98438 9.60938H5.75391L6.47754 24.9316C6.52441 25.9307 7.35059 26.7188 8.34961 26.7188H21.6504C22.6523 26.7188 23.4756 25.9336 23.5225 24.9316L24.2461 9.60938H26.0156C26.1445 9.60938 26.25 9.50391 26.25 9.375V8.4375C26.25 7.91895 25.8311 7.5 25.3125 7.5ZM19.4531 7.5H10.5469V5.39062H19.4531V7.5Z" fill="url(#paint0_linear_32_400)"/>
<defs>
<linearGradient id="paint0_linear_32_400" x1="15" y1="3.28125" x2="15" y2="26.7188" gradientUnits="userSpaceOnUse">
<stop stop-color="#A600A9"/>
<stop offset="1" stop-color="#7137FF"/>
</linearGradient>
</defs>
</svg>
