<svg width="24" height="30" viewBox="0 0 24 30" fill="none" xmlns="http://www.w3.org/2000/svg">
<path fill-rule="evenodd" clip-rule="evenodd" d="M0.75 29.0625V3.75C0.75 2.75544 1.14509 1.80161 1.84835 1.09835C2.55161 0.395088 3.50544 0 4.5 0L19.5 0C20.4946 0 21.4484 0.395088 22.1516 1.09835C22.8549 1.80161 23.25 2.75544 23.25 3.75V29.0625C23.2501 29.2253 23.2078 29.3853 23.1273 29.5268C23.0468 29.6683 22.9308 29.7864 22.7908 29.8695C22.6508 29.9525 22.4916 29.9977 22.3288 30.0005C22.166 30.0034 22.0053 29.9638 21.8625 29.8856L12 24.5044L2.1375 29.8856C1.99468 29.9638 1.83397 30.0034 1.6712 30.0005C1.50842 29.9977 1.34919 29.9525 1.20917 29.8695C1.06916 29.7864 0.953184 29.6683 0.872671 29.5268C0.792158 29.3853 0.749881 29.2253 0.75 29.0625ZM17.3512 10.9762C17.5273 10.8002 17.6262 10.5615 17.6262 10.3125C17.6262 10.0635 17.5273 9.82479 17.3512 9.64875C17.1752 9.47271 16.9365 9.37382 16.6875 9.37382C16.4385 9.37382 16.1998 9.47271 16.0238 9.64875L11.0625 14.6119L8.91375 12.4613C8.82659 12.3741 8.72311 12.3049 8.60922 12.2578C8.49533 12.2106 8.37327 12.1863 8.25 12.1863C8.12673 12.1863 8.00467 12.2106 7.89078 12.2578C7.77689 12.3049 7.67342 12.3741 7.58625 12.4613C7.49909 12.5484 7.42994 12.6519 7.38277 12.7658C7.3356 12.8797 7.31132 13.0017 7.31132 13.125C7.31132 13.2483 7.3356 13.3703 7.38277 13.4842C7.42994 13.5981 7.49909 13.7016 7.58625 13.7887L10.3988 16.6012C10.4858 16.6886 10.5893 16.7578 10.7032 16.8051C10.8171 16.8523 10.9392 16.8767 11.0625 16.8767C11.1858 16.8767 11.3079 16.8523 11.4218 16.8051C11.5357 16.7578 11.6392 16.6886 11.7263 16.6012L17.3512 10.9762Z" fill="url(#paint0_linear_32_403)"/>
<defs>
<linearGradient id="paint0_linear_32_403" x1="12" y1="0" x2="12" y2="30.0007" gradientUnits="userSpaceOnUse">
<stop stop-color="#2672FF"/>
<stop offset="1" stop-color="#83FFB5"/>
</linearGradient>
</defs>
</svg>
