<svg width="119" height="37" viewBox="0 0 119 37" fill="none" xmlns="http://www.w3.org/2000/svg">
<path d="M1.14746 8.96484C1.09277 8.91016 1.03809 8.85547 0.983398 8.80078C0.956055 8.74609 0.915039 8.69141 0.860352 8.63672C0.532227 8.30859 0.368164 7.9668 0.368164 7.61133C0.395508 7.22852 0.504883 6.90039 0.696289 6.62695C0.915039 6.32617 1.18848 6.10742 1.5166 5.9707C1.87207 5.80664 2.22754 5.79297 2.58301 5.92969C3.02051 5.875 3.43066 5.98438 3.81348 6.25781C4.22363 6.50391 4.42871 6.91406 4.42871 7.48828C5.82324 9.15625 7.13574 10.7969 8.36621 12.4102C9.59668 14.0234 10.7178 15.7324 11.7295 17.5371C12.1943 18.3574 12.6182 19.2051 13.001 20.0801C13.4111 20.9277 13.7939 21.7891 14.1494 22.6641C14.1494 21.543 14.1904 20.4355 14.2725 19.3418C14.3818 18.248 14.5049 17.127 14.6416 15.9785C14.9424 13.627 15.2295 11.2891 15.5029 8.96484C15.8037 6.61328 15.9678 4.23437 15.9951 1.82812C15.9951 1.30859 16.1592 0.925781 16.4873 0.679688C16.8428 0.40625 17.2256 0.269531 17.6357 0.269531C18.0459 0.269531 18.415 0.40625 18.7432 0.679688C19.0986 0.925781 19.2764 1.30859 19.2764 1.82812C19.249 4.28906 19.0713 6.72266 18.7432 9.12891C18.4424 11.5078 18.1416 13.9004 17.8408 16.3066C17.7041 17.5371 17.5947 18.7539 17.5127 19.957C17.4307 21.1328 17.4033 22.3359 17.4307 23.5664C17.458 24.7422 17.4854 25.9043 17.5127 27.0527C17.5674 28.2012 17.5674 29.3633 17.5127 30.5391C17.4854 30.9492 17.3486 31.291 17.1025 31.5645C16.8838 31.8105 16.6104 31.9746 16.2822 32.0566C15.9541 32.1387 15.626 32.125 15.2979 32.0156C14.9697 31.9062 14.6963 31.6875 14.4775 31.3594C13.8486 30.4023 13.3154 29.4043 12.8779 28.3652C12.4404 27.2988 12.0303 26.2461 11.6475 25.207C11.2646 24.1953 10.8682 23.2246 10.458 22.2949C10.0479 21.3379 9.58301 20.3945 9.06348 19.4648C8.37988 18.2344 7.6416 17.0586 6.84863 15.9375C6.08301 14.8164 5.2627 13.7227 4.3877 12.6562C4.3877 13.7773 4.3877 14.8848 4.3877 15.9785C4.3877 17.0449 4.41504 18.1387 4.46973 19.2598C4.52441 21.2285 4.66113 23.1836 4.87988 25.125C5.09863 27.0391 5.33105 28.9668 5.57715 30.9082C5.63184 31.373 5.46777 31.7695 5.08496 32.0977C4.72949 32.3984 4.36035 32.5488 3.97754 32.5488C3.48535 32.5488 3.10254 32.3984 2.8291 32.0977C2.55566 31.7695 2.3916 31.373 2.33691 30.9082C2.06348 28.9668 1.81738 27.0391 1.59863 25.125C1.37988 23.1836 1.24316 21.2285 1.18848 19.2598C1.13379 17.5371 1.10645 15.8281 1.10645 14.1328C1.13379 12.4102 1.14746 10.6875 1.14746 8.96484ZM32.1553 14.0918C33.0303 13.9824 33.9463 13.9551 34.9033 14.0098C35.8604 14.0371 36.7764 14.2012 37.6514 14.502C38.5264 14.7754 39.3193 15.1992 40.0303 15.7734C40.7412 16.3477 41.2881 17.0996 41.6709 18.0293C41.9443 18.6855 42.0811 19.3555 42.0811 20.0391C42.1084 20.6953 42.0127 21.3379 41.7939 21.9668C41.6025 22.5684 41.3018 23.1562 40.8916 23.7305C40.5088 24.2773 40.0576 24.7832 39.5381 25.248C38.417 26.2598 37.1865 27.1211 35.8467 27.832C34.5068 28.543 33.0986 29.0898 31.6221 29.4727C30.9932 29.6367 30.3369 29.7871 29.6533 29.9238C28.9971 30.0332 28.3271 30.0879 27.6436 30.0879C26.96 30.0879 26.29 30.0195 25.6338 29.8828C24.9775 29.7188 24.3623 29.459 23.7881 29.1035C23.3779 28.8574 23.1318 28.5293 23.0498 28.1191C22.8857 27.6543 22.708 27.2168 22.5166 26.8066C22.3252 26.3965 22.1338 25.9727 21.9424 25.5352C21.7783 25.0977 21.6416 24.6602 21.5322 24.2227C21.4229 23.7852 21.3682 23.334 21.3682 22.8691C21.3682 21.9395 21.5596 21.0645 21.9424 20.2441C22.3525 19.3965 22.8994 18.6582 23.583 18.0293C24.7314 16.9355 26.0576 16.0605 27.5615 15.4043C29.0654 14.748 30.5967 14.3105 32.1553 14.0918ZM36.79 17.6191C36.0518 17.3457 35.2588 17.209 34.4111 17.209C33.5088 17.1816 32.6064 17.2773 31.7041 17.4961C30.8018 17.6875 29.9404 17.9609 29.1201 18.3164C28.3545 18.6172 27.5615 19.041 26.7412 19.5879C25.9482 20.1074 25.3604 20.75 24.9775 21.5156C24.7588 21.9258 24.6494 22.3496 24.6494 22.7871C24.6768 23.1973 24.7451 23.6211 24.8545 24.0586C24.9912 24.4688 25.1553 24.8926 25.3467 25.3301C25.5654 25.7402 25.7568 26.1504 25.9209 26.5605C26.3584 26.6699 26.6318 26.7246 26.7412 26.7246C26.7959 26.752 26.8643 26.7656 26.9463 26.7656C27.0283 26.7656 27.0967 26.7656 27.1514 26.7656C27.6982 26.8203 28.1904 26.8066 28.6279 26.7246C28.9287 26.7246 29.3115 26.6699 29.7764 26.5605C30.4873 26.4238 31.1709 26.2461 31.8271 26.0273C32.4834 25.7812 33.085 25.5215 33.6318 25.248C34.2607 24.9473 34.876 24.6191 35.4775 24.2637C36.0791 23.9082 36.585 23.5391 36.9951 23.1562C37.2686 22.9102 37.5283 22.6504 37.7744 22.377C37.9111 22.2402 38.0068 22.1309 38.0615 22.0488C38.1982 21.8574 38.3076 21.7207 38.3896 21.6387C38.4717 21.5293 38.54 21.4062 38.5947 21.2695C38.7041 21.0781 38.7588 20.9277 38.7588 20.8184C38.7861 20.7637 38.7998 20.6953 38.7998 20.6133C38.8271 20.5312 38.8545 20.4629 38.8818 20.4082V19.957C38.8545 19.8477 38.8408 19.7656 38.8408 19.7109C38.8408 19.6562 38.8271 19.6016 38.7998 19.5469C38.7178 19.3555 38.6357 19.2188 38.5537 19.1367C38.499 19.0273 38.4307 18.918 38.3486 18.8086C38.376 18.8359 38.335 18.7949 38.2256 18.6855C38.1436 18.5762 38.0889 18.5078 38.0615 18.4805L37.7334 18.1523C37.5967 18.0703 37.4463 17.9746 37.2822 17.8652C37.1182 17.7559 36.9541 17.6738 36.79 17.6191ZM57.0518 18.6855C57.5713 18.6855 57.9541 18.8496 58.2002 19.1777C58.4736 19.5059 58.6104 19.875 58.6104 20.2852C58.6104 20.6953 58.4736 21.0781 58.2002 21.4336C57.9541 21.7617 57.5713 21.9258 57.0518 21.9258C56.3955 21.9531 55.7393 21.9531 55.083 21.9258C54.4541 21.8711 53.8252 21.8164 53.1963 21.7617C53.2236 23.9219 53.1826 26.082 53.0732 28.2422C52.9912 30.4023 52.7725 32.5488 52.417 34.6816C52.3623 35.1465 52.1162 35.4883 51.6787 35.707C51.2412 35.9258 50.8174 35.9668 50.4072 35.8301C49.9424 35.6934 49.6143 35.4336 49.4229 35.0508C49.2588 34.6953 49.2178 34.2852 49.2998 33.8203C49.6279 31.7422 49.8057 29.6641 49.833 27.5859C49.8877 25.5078 49.8877 23.416 49.833 21.3105C48.7939 21.1465 47.7412 20.9824 46.6748 20.8184C45.6084 20.627 44.5557 20.4629 43.5166 20.3262C43.0518 20.2715 42.7236 20.0254 42.5322 19.5879C42.3135 19.123 42.2588 18.6992 42.3682 18.3164C42.5049 17.8516 42.7646 17.5371 43.1475 17.373C43.5303 17.1816 43.9404 17.1133 44.3779 17.168C45.2803 17.3047 46.1826 17.4551 47.085 17.6191C47.9873 17.7559 48.9033 17.8926 49.833 18.0293C49.8057 17.8926 49.792 17.6875 49.792 17.4141C49.792 14.9531 49.7783 12.5195 49.751 10.1133C49.751 7.70703 49.874 5.27344 50.1201 2.8125C50.1748 2.375 50.3389 1.99219 50.6123 1.66406C50.9131 1.33594 51.2959 1.17188 51.7607 1.17188C52.1709 1.17188 52.5537 1.33594 52.9092 1.66406C53.292 1.99219 53.4561 2.375 53.4014 2.8125C53.1279 5.4375 52.9912 8.04883 52.9912 10.6465C53.0186 13.2168 53.0596 15.8281 53.1143 18.4805C53.7705 18.5352 54.4268 18.5898 55.083 18.6445C55.7393 18.6719 56.3955 18.6855 57.0518 18.6855ZM62.1377 17.0859C62.6572 16.375 63.2725 15.7461 63.9834 15.1992C64.7217 14.6523 65.501 14.2285 66.3213 13.9277C67.1416 13.5996 67.9893 13.4355 68.8643 13.4355C69.7393 13.4082 70.6143 13.5723 71.4893 13.9277C72.3369 14.2559 73.1025 14.707 73.7861 15.2812C74.4697 15.8281 75.0029 16.5391 75.3857 17.4141C75.6865 18.0703 75.8643 18.7812 75.9189 19.5469C75.9736 20.3125 75.7686 21.0098 75.3037 21.6387C74.8936 22.2129 74.3877 22.6504 73.7861 22.9512C73.2119 23.252 72.583 23.4707 71.8994 23.6074C71.2432 23.7441 70.5596 23.8125 69.8486 23.8125C69.165 23.8125 68.5088 23.7988 67.8799 23.7715C67.1689 23.7441 66.458 23.6895 65.7471 23.6074C65.0635 23.5254 64.3662 23.4434 63.6553 23.3613C63.874 24.5918 64.3115 25.6855 64.9678 26.6426C65.624 27.5996 66.5127 28.3242 67.6338 28.8164C67.9346 28.9258 68.167 29.0078 68.3311 29.0625C68.4131 29.0898 68.4814 29.1172 68.5361 29.1445C68.6182 29.1445 68.7002 29.1445 68.7822 29.1445C69.001 29.1719 69.1787 29.1992 69.3154 29.2266C69.4795 29.2266 69.6299 29.2129 69.7666 29.1855C69.958 29.1582 70.0811 29.1445 70.1357 29.1445C70.2178 29.1172 70.2998 29.0898 70.3818 29.0625C70.6826 28.9805 70.9424 28.8848 71.1611 28.7754C71.4072 28.666 71.6943 28.4883 72.0225 28.2422C72.1865 28.1055 72.4053 27.9004 72.6787 27.627C72.9521 27.3535 73.1846 27.1074 73.376 26.8887C73.6494 26.5059 73.9775 26.2461 74.3604 26.1094C74.7705 25.9727 75.1807 26.0273 75.5908 26.2734C75.9463 26.4922 76.1924 26.834 76.3291 27.2988C76.4932 27.7363 76.4385 28.1465 76.165 28.5293C75.3721 29.5957 74.4287 30.5117 73.335 31.2773C72.2686 32.0156 71.0381 32.4121 69.6436 32.4668C68.5225 32.5215 67.4424 32.3301 66.4033 31.8926C65.3643 31.4277 64.4482 30.8125 63.6553 30.0469C62.6709 29.0898 61.8916 27.9824 61.3174 26.7246C60.7432 25.4668 60.4287 24.1816 60.374 22.8691C60.1279 22.6777 59.9365 22.4453 59.7998 22.1719C59.6904 21.8711 59.6494 21.5703 59.6768 21.2695C59.7314 20.9688 59.8408 20.6953 60.0049 20.4492C60.1689 20.1758 60.415 19.998 60.7432 19.916C61.0439 18.9043 61.5088 17.9609 62.1377 17.0859ZM71.9814 18.0703C71.6807 17.6875 71.2158 17.3457 70.5869 17.0449C70.0674 16.8262 69.4521 16.7168 68.7412 16.7168C68.0576 16.7168 67.4697 16.8398 66.9775 17.0859C66.3486 17.3867 65.7881 17.8105 65.2959 18.3574C64.8037 18.877 64.4072 19.4648 64.1064 20.1211C64.7627 20.2031 65.4189 20.2852 66.0752 20.3672C66.7314 20.4492 67.3877 20.5039 68.0439 20.5312C68.3994 20.5312 68.7549 20.5312 69.1104 20.5312C69.4658 20.5312 69.8213 20.5176 70.1768 20.4902C70.2861 20.4902 70.3818 20.4902 70.4639 20.4902C70.5732 20.4629 70.6826 20.4492 70.792 20.4492C71.0381 20.3945 71.2158 20.3672 71.3252 20.3672C71.4619 20.3398 71.5986 20.2988 71.7354 20.2441C71.8447 20.2168 71.9814 20.1758 72.1455 20.1211C72.2822 20.0664 72.3643 20.0254 72.3916 19.998C72.4189 19.9707 72.46 19.9434 72.5146 19.916L72.6377 19.4238C72.583 19.3145 72.542 19.2188 72.5146 19.1367C72.5146 19.0273 72.4873 18.9316 72.4326 18.8496C72.4053 18.7676 72.3369 18.6445 72.2275 18.4805C72.1455 18.3164 72.0635 18.1797 71.9814 18.0703Z" fill="#FA00FF"/>
<path d="M78.2158 33C77.7236 32.8633 77.3955 32.5898 77.2314 32.1797C77.0674 31.7695 77.04 31.373 77.1494 30.9902C77.2588 30.6074 77.4775 30.293 77.8057 30.0469C78.1611 29.7734 78.585 29.7051 79.0771 29.8418C80.1709 30.1699 81.2646 30.375 82.3584 30.457C83.4521 30.5391 84.5732 30.5527 85.7217 30.498C85.2568 28.5566 85.0244 26.6152 85.0244 24.6738C85.0244 22.7051 85.0928 20.75 85.2295 18.8086C85.3936 16.8398 85.5439 14.8711 85.6807 12.9023C85.8447 10.9336 85.8584 8.96484 85.7217 6.99609C84.6826 6.96875 83.6299 6.92773 82.5635 6.87305C81.5244 6.79102 80.4854 6.68164 79.4463 6.54492C78.9814 6.49023 78.585 6.32617 78.2568 6.05273C77.9561 5.7793 77.8057 5.41016 77.8057 4.94531C77.8057 4.53516 77.9561 4.15234 78.2568 3.79688C78.585 3.41406 78.9814 3.25 79.4463 3.30469C80.7041 3.44141 81.9619 3.56445 83.2197 3.67383C84.5049 3.75586 85.7764 3.7832 87.0342 3.75586C88.292 3.72852 89.5361 3.61914 90.7666 3.42773C92.0244 3.23633 93.2686 2.92187 94.499 2.48438C94.9092 2.34766 95.3057 2.40234 95.6885 2.64844C96.0986 2.89453 96.3721 3.22266 96.5088 3.63281C96.6455 4.09766 96.5908 4.52148 96.3447 4.9043C96.126 5.25977 95.7979 5.50586 95.3604 5.64258C93.3096 6.35352 91.1768 6.77734 88.9619 6.91406C89.126 8.85547 89.126 10.8105 88.9619 12.7793C88.7979 14.748 88.6338 16.7031 88.4697 18.6445C88.3057 20.5859 88.2236 22.5273 88.2236 24.4688C88.251 26.4102 88.5107 28.3379 89.0029 30.252C89.8779 30.1699 90.7393 30.0879 91.5869 30.0059C92.4346 29.9238 93.2822 29.8555 94.1299 29.8008C94.6494 29.7734 95.0322 29.9238 95.2783 30.252C95.5518 30.5527 95.6885 30.9082 95.6885 31.3184C95.6885 31.7285 95.5518 32.1113 95.2783 32.4668C95.0322 32.8223 94.6494 33.0137 94.1299 33.041C92.79 33.123 91.4502 33.2324 90.1104 33.3691C88.7979 33.5332 87.4717 33.6426 86.1318 33.6973C84.8193 33.7793 83.4932 33.7793 82.1533 33.6973C80.8408 33.6152 79.5283 33.3828 78.2158 33ZM101.882 30.9902C101.253 30.5254 100.679 30.0059 100.159 29.4316C99.667 28.8301 99.2158 28.2012 98.8057 27.5449C98.4229 26.9707 98.0537 26.3555 97.6982 25.6992C97.3428 25.043 97.0283 24.373 96.7549 23.6895C96.4814 23.0059 96.2627 22.3086 96.0986 21.5977C95.9619 20.8867 95.9209 20.1758 95.9756 19.4648C96.0576 18.0703 96.1943 16.7031 96.3857 15.3633C96.6045 13.9961 96.8916 12.6562 97.2471 11.3438C97.3564 10.8516 97.4932 10.3047 97.6572 9.70312C97.8213 9.10156 98.0264 8.52734 98.2725 7.98047C98.5459 7.40625 98.8604 6.88672 99.2158 6.42188C99.5713 5.95703 100.022 5.60156 100.569 5.35547C101.39 5 102.21 4.87695 103.03 4.98633C103.851 5.06836 104.644 5.28711 105.409 5.64258C106.202 5.99805 106.954 6.43555 107.665 6.95508C108.376 7.44727 109.046 7.93945 109.675 8.43164C110.249 8.89648 110.81 9.38867 111.356 9.9082C111.931 10.4004 112.519 10.8789 113.12 11.3438C113.831 11.9727 114.542 12.6016 115.253 13.2305C115.991 13.8594 116.593 14.584 117.058 15.4043C117.604 16.334 117.919 17.2773 118.001 18.2344C118.083 19.1641 118.015 20.0938 117.796 21.0234C117.577 21.9258 117.235 22.8145 116.771 23.6895C116.306 24.5645 115.8 25.4121 115.253 26.2324C114.761 26.9434 114.187 27.6953 113.53 28.4883C112.901 29.2812 112.19 30.0059 111.397 30.6621C110.632 31.3184 109.798 31.8379 108.896 32.2207C108.021 32.6035 107.091 32.7402 106.106 32.6309C105.532 32.5488 105.108 32.3301 104.835 31.9746C104.315 31.8926 103.81 31.7832 103.317 31.6465C102.825 31.5098 102.347 31.291 101.882 30.9902ZM99.2568 19.1777C99.2021 19.8613 99.2295 20.4902 99.3389 21.0645C99.4756 21.6387 99.6943 22.2812 99.9951 22.9922C100.378 23.7852 100.802 24.5918 101.267 25.4121C101.731 26.2051 102.278 26.9297 102.907 27.5859C103.454 28.1875 104.083 28.5566 104.794 28.6934C105.259 28.7754 105.71 28.8574 106.147 28.9395C106.585 28.9941 107.022 29.0898 107.46 29.2266C107.624 29.1719 107.788 29.1172 107.952 29.0625C108.116 28.9805 108.28 28.8711 108.444 28.7344C108.909 28.4336 109.333 28.1055 109.716 27.75C110.099 27.3945 110.468 27.0254 110.823 26.6426C111.507 25.877 112.163 25.043 112.792 24.1406C113.448 23.2383 113.968 22.3086 114.351 21.3516C114.733 20.3945 114.884 19.4922 114.802 18.6445C114.72 17.7969 114.323 16.9766 113.612 16.1836C112.956 15.4453 112.231 14.7754 111.438 14.1738C110.673 13.5449 109.921 12.916 109.183 12.2871C108.554 11.7402 107.938 11.2207 107.337 10.7285C106.735 10.2363 106.079 9.77148 105.368 9.33398C104.712 8.89648 104.069 8.56836 103.44 8.34961C103.358 8.32227 103.276 8.30859 103.194 8.30859C103.14 8.28125 103.071 8.25391 102.989 8.22656L102.374 8.18555C102.155 8.24023 102.019 8.29492 101.964 8.34961C101.772 8.56836 101.663 8.67773 101.636 8.67773C101.444 9.00586 101.321 9.23828 101.267 9.375C101.212 9.51172 101.13 9.73047 101.021 10.0312C100.747 10.8242 100.515 11.6309 100.323 12.4512C100.132 13.2441 99.9678 14.0371 99.8311 14.8301C99.6943 15.623 99.5713 16.3477 99.4619 17.0039C99.3799 17.6602 99.3115 18.3848 99.2568 19.1777Z" fill="#2B4CDE"/>
</svg>
